<svg xmlns="http://www.w3.org/2000/svg" viewBox="0 0 789 518" width="789" height="518">
	<defs>
		<linearGradient id="grd1" gradientUnits="userSpaceOnUse"  x1="377.025" y1="310.382" x2="184.494" y2="487.805">
			<stop offset="0.27" stop-color="#1d76bb"  />
			<stop offset="0.97" stop-color="#008fc1"  />
		</linearGradient>
		<linearGradient id="grd2" gradientUnits="userSpaceOnUse"  x1="163.67" y1="242.991" x2="318.14" y2="648.482">
			<stop offset="0" stop-color="#3e3694"  />
			<stop offset="0.07" stop-color="#3c3f9a"  />
			<stop offset="0.19" stop-color="#3858ab"  />
			<stop offset="0.33" stop-color="#3080c5"  />
			<stop offset="0.48" stop-color="#27aee4"  />
			<stop offset="0.58" stop-color="#1e9bcc"  />
			<stop offset="0.76" stop-color="#107faa"  />
			<stop offset="0.9" stop-color="#076d95"  />
			<stop offset="1" stop-color="#04678d"  />
		</linearGradient>
		<linearGradient id="grd3" gradientUnits="userSpaceOnUse"  x1="125.965" y1="430.557" x2="334.289" y2="305.563">
			<stop offset="0" stop-color="#26b2e7"  />
			<stop offset="0.69" stop-color="#d9dbdc"  />
			<stop offset="1" stop-color="#4dc2f0"  />
		</linearGradient>
		<linearGradient id="grd4" gradientUnits="userSpaceOnUse"  x1="328.607" y1="410.64" x2="365.468" y2="410.64">
			<stop offset="0.13" stop-color="#29abe2"  />
			<stop offset="0.91" stop-color="#f2f2f2"  />
		</linearGradient>
		<linearGradient id="grd5" gradientUnits="userSpaceOnUse"  x1="146.017" y1="257.76" x2="677.021" y2="257.76">
			<stop offset="0.02" stop-color="#2a3793"  />
			<stop offset="0.59" stop-color="#039cd1"  />
			<stop offset="1" stop-color="#008fc1"  />
		</linearGradient>
		<linearGradient id="grd6" gradientUnits="userSpaceOnUse"  x1="306.8" y1="443.537" x2="677.926" y2="443.537">
			<stop offset="0" stop-color="#0389b6"  />
			<stop offset="0.69" stop-color="#82bcd7"  />
			<stop offset="1" stop-color="#358daf"  />
		</linearGradient>
		<linearGradient id="grd7" gradientUnits="userSpaceOnUse"  x1="306.856" y1="453.886" x2="660.435" y2="453.886">
			<stop offset="0" stop-color="#0389b6"  />
			<stop offset="0.69" stop-color="#82bcd7"  />
			<stop offset="0.96" stop-color="#45a6cc"  />
		</linearGradient>
		<linearGradient id="grd8" gradientUnits="userSpaceOnUse"  x1="306.549" y1="461.246" x2="645.243" y2="461.246">
			<stop offset="0" stop-color="#0389b6"  />
			<stop offset="0.69" stop-color="#82bcd7"  />
			<stop offset="1" stop-color="#3690b2"  />
		</linearGradient>
		<linearGradient id="grd9" gradientUnits="userSpaceOnUse"  x1="328.607" y1="410.64" x2="365.468" y2="410.64">
			<stop offset="0.14" stop-color="#2a3793"  />
			<stop offset="0.21" stop-color="#263f99"  />
			<stop offset="0.49" stop-color="#039cd1"  />
			<stop offset="1" stop-color="#008fc1"  />
		</linearGradient>
	</defs>
	<style>
		tspan { white-space:pre }
		.shp0 { fill: #2a3793 } 
		.shp1 { fill: #263f99 } 
		.shp2 { fill: url(#grd1) } 
		.shp3 { fill: url(#grd2) } 
		.shp4 { fill: url(#grd3) } 
		.shp5 { fill: url(#grd4) } 
		.shp6 { fill: url(#grd5) } 
		.shp7 { fill: url(#grd6) } 
		.shp8 { fill: #0b5461 } 
		.shp9 { fill: url(#grd7) } 
		.shp10 { fill: url(#grd8) } 
		.shp11 { fill: url(#grd9) } 
		.shp12 { fill: #010101 } 
	</style>
	<path id="Layer" class="shp0" d="M360.91 347.76C360.26 342.34 360.18 337.32 359.84 333.47L359.84 333.47C359.94 332.75 360.01 332.03 360.05 331.31C360.11 330.58 360.13 329.87 360.15 329.14C360.16 328.43 360.16 327.7 360.13 326.98C360.11 326.26 360.06 325.54 360 324.82C359.93 324.05 359.83 323.28 359.72 322.51L359.72 322.51C359.47 320.85 359.13 319.21 358.69 317.54C358.48 316.83 358.27 316.11 358.03 315.41C357.56 314 357.01 312.6 356.4 311.22C355.79 309.83 355.09 308.47 354.33 307.12C353.56 305.77 352.73 304.45 351.83 303.15C350.93 301.85 349.95 300.58 348.91 299.33C347.81 297.98 346.61 296.68 345.35 295.4C342.31 294.67 339.33 293.81 336.43 292.82C333.55 291.83 330.74 290.72 328.04 289.48C325.32 288.25 322.73 286.91 320.25 285.45C317.77 284 315.42 282.44 313.21 280.78C312.52 280.29 311.87 279.79 311.21 279.27C310.56 278.77 309.92 278.25 309.29 277.72C308.67 277.2 308.05 276.66 307.45 276.13C306.86 275.58 306.27 275.03 305.7 274.48C304.73 274.24 303.74 274.02 302.75 273.81C301.75 273.61 300.76 273.41 299.75 273.24C298.75 273.06 297.73 272.89 296.73 272.74C295.72 272.58 294.7 272.45 293.68 272.32C294.56 273.09 295.37 273.88 296.16 274.67C297.83 276.32 299.39 278.05 300.8 279.83C302.22 281.61 303.5 283.45 304.64 285.32C305.77 287.2 306.77 289.12 307.62 291.07C308.47 293.03 309.17 295.02 309.72 297.02C310.17 298.65 310.52 300.29 310.75 301.99L310.75 301.99C310.91 303.03 311.02 304.08 311.09 305.12C311.16 306.16 311.2 307.21 311.19 308.26C311.17 309.31 311.13 310.35 311.03 311.4C310.95 312.44 310.81 313.48 310.64 314.52C310.56 315.03 310.46 315.52 310.35 316.03C310.16 316.95 309.93 317.86 309.68 318.78C309.43 319.69 309.15 320.59 308.83 321.5C308.53 322.39 308.18 323.28 307.8 324.18C307.43 325.06 307.02 325.95 306.59 326.82C306.59 326.83 306.59 326.83 306.59 326.84L306.59 326.85C306.59 326.86 306.59 326.87 306.59 326.87C306.59 326.88 306.59 326.88 306.59 326.89C306.22 327.63 305.85 328.39 305.49 329.14L304.93 330.34C304.15 332.04 303.37 333.76 302.55 335.51C302.09 336.5 301.62 337.5 301.16 338.49C301.06 338.67 300.98 338.86 300.88 339.04L302.85 339.86L304.82 340.67C306.13 341.19 307.47 341.72 308.81 342.23L310.84 342.98L312.7 343.66C316 344.84 319.37 345.94 322.79 346.96C323.65 347.23 324.51 347.48 325.38 347.73L325.56 347.73C326.46 348 327.38 348.25 328.34 348.5C329.3 348.75 330.32 349.04 331.31 349.29L334.09 349.98C335.31 350.29 336.54 350.58 337.78 350.87C338.65 351.07 339.52 351.26 340.4 351.44L340.88 351.54C341.68 351.72 342.49 351.89 343.31 352.05L344.7 352.33C345.43 352.48 346.1 352.61 346.86 352.73L348.67 353.07L351.88 353.62L353.98 353.96C354.49 354.05 355.02 354.12 355.55 354.19L357.75 354.51L359.15 354.71L361.93 355.07L362.4 355.07L362.4 355.07C363.48 355.2 364.55 355.32 365.63 355.43C366.72 355.54 367.79 355.65 368.88 355.75C369.95 355.42 371.05 355.1 372.14 354.76C371.32 354.09 370.47 353.44 369.59 352.81C368.71 352.18 367.79 351.57 366.86 350.99C365.93 350.4 364.95 349.84 363.96 349.3C362.98 348.76 361.96 348.24 360.91 347.76L360.91 347.76Z" />
	<path id="Layer" class="shp1" d="M615.18 235.93C611.46 238.58 611.46 238.59 614.13 241.84C617.31 245.64 620.34 249.52 623.23 253.44C626.11 257.36 628.85 261.34 631.44 265.37C634.03 269.39 636.47 273.46 638.75 277.59C641.04 281.71 643.17 285.87 645.15 290.07C649.32 299.01 652.32 308.25 652.53 317.68C652.69 325.45 651.13 333.16 643.98 339.59C641.4 341.91 640.95 341.94 637.97 339.84C620.69 327.68 603.41 315.53 586.13 303.38C576.05 296.31 565.83 289.34 555.83 282.22C553.64 280.67 552.33 280.67 550.13 282.22C529.8 296.84 509.33 311.38 488.94 325.93C487.13 327.22 485.28 328.48 483.39 329.7C481.48 330.93 479.53 332.12 477.55 333.28C475.56 334.43 473.53 335.54 471.47 336.61C469.39 337.7 467.29 338.73 465.15 339.73C461.3 339.89 457.46 340.1 453.63 340.37C449.8 340.63 445.97 340.95 442.15 341.32C438.35 341.7 434.54 342.13 430.75 342.61C426.96 343.09 423.19 343.64 419.43 344.22C418.04 344.43 416.77 344.65 415.43 344.88C410.79 345.67 406.14 346.55 401.51 347.49C400.6 347.69 399.68 347.87 398.72 348.08C397.76 348.28 396.9 348.47 395.94 348.67L393.15 349.29C391.2 349.72 389.25 350.19 387.32 350.68L385.06 351.24C384.16 351.47 383.26 351.69 382.39 351.93L377.93 353.12C375.87 353.7 373.84 354.27 371.8 354.88C371 354.19 370.17 353.53 369.3 352.88C368.43 352.25 367.54 351.62 366.62 351.02C365.69 350.42 364.74 349.84 363.77 349.29C362.78 348.73 361.78 348.21 360.75 347.7C360.09 342.29 360.01 337.26 359.67 333.41L359.67 333.41C359.77 332.69 359.84 331.97 359.88 331.25C359.94 330.53 359.97 329.81 359.98 329.09C360 328.37 360 327.64 359.97 326.92C359.94 326.2 359.9 325.48 359.83 324.76C359.76 323.99 359.66 323.23 359.55 322.45L359.55 322.45C359.3 320.79 358.96 319.15 358.52 317.48C358.31 316.77 358.1 316.05 357.86 315.35C357.39 313.94 356.85 312.54 356.24 311.16C355.62 309.77 354.93 308.41 354.16 307.06C353.39 305.71 352.56 304.39 351.67 303.09C350.76 301.79 349.79 300.52 348.74 299.27C347.64 297.92 346.45 296.62 345.18 295.34C347.46 295.87 349.76 296.33 352.1 296.73C354.44 297.11 356.79 297.43 359.16 297.68C361.53 297.93 363.91 298.11 366.3 298.22C368.7 298.32 371.09 298.36 373.49 298.32C390.2 297.89 406.19 294.87 419.82 287.76C428.17 283.38 435.5 277.88 442.96 272.65C458.48 261.72 473.78 250.68 489.18 239.7C490.57 238.71 491.7 237.96 489.78 236.62C483.08 232.01 476.49 227.32 469.84 222.72C458.8 215.03 447.39 207.61 436.74 199.67C417.81 185.55 395.42 177.81 367.6 179.02C342.35 180.12 322.06 188.06 306.54 202.09C292.03 215.21 286.58 230.22 290.01 246.78C290.48 249.27 291.18 251.72 292.07 254.14C292.97 256.57 294.07 258.95 295.38 261.28C296.69 263.6 298.19 265.87 299.89 268.06C301.59 270.26 303.47 272.37 305.53 274.4C304.56 274.16 303.57 273.94 302.58 273.73C301.58 273.53 300.59 273.33 299.59 273.16C298.58 272.98 297.57 272.81 296.56 272.66C295.55 272.5 294.53 272.37 293.52 272.24C294.39 273.01 295.2 273.8 295.99 274.59C297.69 276.25 299.25 277.98 300.69 279.76C302.12 281.55 303.42 283.39 304.57 285.27C305.71 287.16 306.73 289.09 307.59 291.04C308.46 293.01 309.17 295.01 309.72 297.02C310.17 298.65 310.52 300.29 310.75 301.99L310.75 301.99C310.91 303.03 311.02 304.08 311.09 305.12C311.16 306.16 311.2 307.21 311.19 308.26C311.17 309.31 311.13 310.35 311.03 311.4C310.95 312.44 310.81 313.48 310.64 314.52C310.56 315.03 310.46 315.52 310.35 316.03C310.16 316.95 309.93 317.86 309.68 318.78C309.43 319.69 309.15 320.59 308.83 321.5C308.53 322.39 308.18 323.28 307.8 324.18C307.43 325.06 307.02 325.95 306.59 326.82C306.59 326.83 306.59 326.83 306.59 326.84L306.59 326.85C306.59 326.86 306.59 326.87 306.59 326.87C306.59 326.88 306.59 326.88 306.59 326.89C306.22 327.63 305.85 328.39 305.49 329.14L304.93 330.34C304.15 332.04 303.37 333.76 302.55 335.51C302.09 336.5 301.62 337.5 301.16 338.49C301.06 338.67 300.98 338.86 300.88 339.04C297.69 337.72 294.56 336.29 291.51 334.75C277.74 328.01 265.37 319.94 254.76 310.75C244.15 301.55 235.4 291.35 228.78 280.42C222.15 269.49 217.72 257.96 215.59 246.15C213.47 234.34 213.69 222.38 216.24 210.61C216.97 207.23 217.89 203.89 219 200.57C220.11 197.25 221.42 193.96 222.9 190.73C224.39 187.48 226.06 184.28 227.91 181.14C229.76 177.99 231.8 174.9 234.01 171.87C236.23 168.85 234.01 171.87 234.01 171.87C236.37 169.31 238.91 166.86 241.66 164.5C244.4 162.15 247.34 159.92 250.44 157.81C253.55 155.7 256.82 153.73 260.26 151.89C263.69 150.04 267.25 148.35 270.96 146.81C271.42 146.62 271.86 146.43 272.35 146.25C276.02 144.77 279.8 143.44 283.68 142.27C287.57 141.09 291.55 140.08 295.59 139.24C299.64 138.39 303.75 137.72 307.91 137.21C312.06 136.7 316.27 136.37 320.47 136.21C322.54 136.12 324.65 136.08 326.69 136.08C327.72 136.08 328.76 136.09 329.79 136.11C330.82 136.13 331.85 136.16 332.9 136.2C333.93 136.25 334.96 136.3 335.99 136.36C337.02 136.42 338.05 136.5 339.08 136.57C340.64 136.69 342.21 136.84 343.76 137.01C345.32 137.18 346.86 137.38 348.41 137.6C349.95 137.82 351.5 138.06 353.02 138.33C354.55 138.6 356.07 138.89 357.59 139.21C359.2 139.53 361.36 140.05 363.7 140.64C370.41 142.31 378.57 144.54 379.55 144.61L379.55 144.61C383.99 146.68 388.64 148.5 393.44 150.08C398.26 151.67 403.23 153 408.32 154.08C413.4 155.15 418.58 155.95 423.83 156.5C429.08 157.04 434.37 157.3 439.68 157.29C440.36 157.29 441.07 157.29 441.71 157.29C443.99 157.26 446.28 157.18 448.56 157.06C450.84 156.93 453.11 156.75 455.38 156.52C457.64 156.28 459.9 156 462.14 155.66C464.38 155.34 466.61 154.96 468.81 154.52C463.49 154.19 458.22 153.51 453.09 152.5C447.93 151.47 442.93 150.12 438.14 148.45C433.34 146.79 428.77 144.8 424.48 142.52C420.19 140.26 416.21 137.72 412.58 134.93L412.58 134.93C412.15 134.6 411.71 134.26 411.31 133.93L410.42 133.22C409.36 132.34 408.33 131.45 407.36 130.54C407.15 130.36 406.95 130.18 406.76 129.99L405.55 128.82L405.41 128.68C404.97 128.25 404.54 127.81 404.14 127.38C403.44 126.64 402.75 125.91 402.12 125.15C401.79 124.77 401.46 124.39 401.14 124C400.28 122.95 399.45 121.87 398.67 120.77C398.42 120.42 398.16 120.09 397.93 119.78C403.58 120.36 409.19 121.15 414.75 122.14C420.29 123.15 425.75 124.35 431.13 125.76C436.49 127.16 441.75 128.77 446.88 130.57C452.01 132.36 457 134.35 461.85 136.53C475.84 142.75 488 150.51 499.56 158.82C515.89 170.58 532.36 182.26 548.78 193.96C549.44 194.43 550.17 194.85 551.73 195.83C553.74 194.16 555.55 192.43 557.67 190.87C577.41 176.66 597.06 162.41 617.02 148.36C632.22 137.69 651.34 138 666.51 148.73C671.94 152.58 677.49 156.34 683.06 160.09C694.75 167.98 695 178.97 683.68 187.03C660.84 203.34 638 219.64 615.18 235.93Z" />
	<path id="Layer" fill-rule="evenodd" class="shp2" d="M360.91 347.76C361.96 348.24 362.98 348.76 363.96 349.3C364.95 349.84 365.93 350.4 366.86 350.99C367.79 351.57 368.71 352.18 369.59 352.81C370.47 353.44 371.32 354.09 372.14 354.76C371.05 355.1 369.95 355.42 368.88 355.75C367.79 355.65 366.72 355.54 365.63 355.43C364.55 355.32 363.48 355.2 362.4 355.07L362.21 355.07C361.82 353.51 361.58 351.91 361.26 350.32C361.42 351.81 361.49 353.43 361.75 355.05L359.15 354.71L357.75 354.51L355.55 354.19C355.02 354.12 354.49 354.05 353.98 353.96L351.88 353.62L348.67 353.07L346.86 352.73C346.1 352.61 345.43 352.48 344.7 352.33L343.31 352.05C342.49 351.89 341.68 351.72 340.88 351.54L340.4 351.44C339.52 351.26 338.65 351.07 337.78 350.87C336.54 350.58 335.31 350.29 334.09 349.98L331.31 349.29C330.32 349.04 329.3 348.75 328.34 348.5C327.38 348.25 326.46 348 325.56 347.73L325.38 347.73C324.51 347.48 323.65 347.23 322.79 346.96C319.37 345.94 316 344.84 312.7 343.66L310.84 342.98L308.81 342.23C307.47 341.72 306.13 341.19 304.82 340.67L302.85 339.86L300.88 339.04C300.98 338.86 301.06 338.67 301.16 338.49C301.62 337.5 302.09 336.5 302.55 335.51C303.37 333.76 304.15 332.04 304.93 330.34L305.49 329.14C305.85 328.39 306.22 327.63 306.59 326.89C306.59 326.88 306.59 326.88 306.59 326.87C306.59 326.87 306.59 326.86 306.59 326.85C306.59 326.84 306.59 326.83 306.59 326.82C307.02 325.95 307.43 325.06 307.8 324.18C308.18 323.28 308.53 322.39 308.83 321.5C309.15 320.59 309.43 319.69 309.68 318.78C309.93 317.86 310.16 316.95 310.35 316.03C310.46 315.52 310.56 315.03 310.64 314.52C310.81 313.48 310.95 312.44 311.03 311.4C311.13 310.35 311.17 309.31 311.19 308.26C311.2 307.21 311.16 306.16 311.09 305.12C311.02 304.08 310.91 303.03 310.75 301.99C310.52 300.29 310.17 298.65 309.72 297.02C309.18 295.02 308.47 293.03 307.64 291.07C306.79 289.12 305.78 287.2 304.66 285.32C303.51 283.45 302.23 281.61 300.83 279.83C299.41 278.05 297.86 276.32 296.19 274.67C295.4 273.88 294.59 273.09 293.71 272.32C294.73 272.45 295.74 272.58 296.76 272.74C297.76 272.89 298.78 273.06 299.78 273.24C300.78 273.41 301.77 273.61 302.78 273.81C303.76 274.02 304.75 274.24 305.73 274.48L307.12 274.81C309.96 275.53 312.76 276.36 315.46 277.31C318.18 278.25 320.82 279.3 323.36 280.47C325.91 281.63 328.36 282.89 330.71 284.24C333.05 285.6 335.28 287.05 337.39 288.59C338.1 289.11 338.79 289.62 339.47 290.16C340.15 290.69 340.81 291.23 341.46 291.78C342.1 292.34 342.74 292.89 343.35 293.46C343.98 294.02 344.58 294.6 345.16 295.19L345.37 295.4C346.64 296.68 347.84 297.98 348.94 299.33C349.98 300.58 350.96 301.85 351.86 303.15C352.75 304.45 353.59 305.77 354.36 307.12C355.12 308.47 355.82 309.83 356.43 311.22C357.04 312.6 357.59 314 358.06 315.41C358.3 316.11 358.51 316.83 358.71 317.54C359.16 319.21 359.49 320.85 359.74 322.51C359.86 323.28 359.95 324.05 360.02 324.82C360.09 325.54 360.13 326.26 360.16 326.98C360.19 327.7 360.19 328.43 360.18 329.14C360.16 329.87 360.13 330.58 360.08 331.31C360.04 332.03 359.97 332.75 359.87 333.47C360.2 337.32 360.29 342.34 360.94 347.76L360.91 347.76ZM362.21 355.07C362.22 355.1 362.22 355.14 362.24 355.17L361.76 355.17C361.76 355.13 361.75 355.09 361.75 355.05L361.93 355.07L362.21 355.07ZM361.26 350.32C361.21 349.78 361.14 349.25 361.04 348.74C361.04 349.27 361.18 349.79 361.26 350.32ZM248.15 371.68C248.51 372.17 248.88 372.67 249.22 373.15C246.8 372.95 244.36 372.81 241.91 372.72C239.47 372.64 237.02 372.61 234.58 372.64C232.13 372.67 229.7 372.76 227.26 372.9C224.82 373.05 222.4 373.24 219.98 373.5C216.88 373.84 213.81 374.28 210.77 374.79C207.72 375.32 204.71 375.93 201.73 376.63C198.77 377.33 195.83 378.11 192.95 378.99C190.06 379.86 187.24 380.81 184.47 381.86C187.53 380.31 190.72 378.9 194.03 377.63C197.33 376.37 200.74 375.26 204.25 374.31C207.76 373.35 211.34 372.56 214.99 371.92C218.64 371.29 222.33 370.82 226.06 370.52C227.06 370.53 228.07 370.54 229.05 370.53C230.06 370.52 231.06 370.5 232.06 370.46C233.05 370.43 234.05 370.38 235.06 370.33C236.05 370.27 237.05 370.21 238.04 370.13C240.79 369.86 243.54 369.54 246.24 369.13C246.57 369.55 246.91 369.97 247.23 370.38C247.55 370.79 247.85 371.2 248.15 371.61C248.15 371.62 248.15 371.62 248.15 371.63C248.15 371.63 248.15 371.64 248.15 371.65C248.15 371.66 248.15 371.67 248.15 371.68ZM426.7 421.43C423.98 421.61 421.34 421.72 418.55 421.81L417.87 421.81C419.72 420.87 421.59 419.94 423.44 419.02C424.41 419.76 425.39 420.48 426.39 421.2L426.7 421.43Z" />
	<path id="Layer" class="shp3" d="M262.45 408.34C262.34 408.93 262.24 409.53 262.1 410.11L262 410.58C261.89 411.15 261.77 411.7 261.63 412.26L261.08 414.42C260.89 415.09 260.72 415.75 260.53 416.41C260.04 418.05 259.52 419.69 258.98 421.31C258.45 422.94 257.88 424.56 257.31 426.15C256.31 428.97 255.28 431.74 254.3 434.44C254.06 435.08 253.84 435.72 253.62 436.37C253.16 437.64 252.71 438.9 252.31 440.13C251.78 441.75 251.18 443.36 250.51 444.96C249.86 446.56 249.13 448.15 248.36 449.71C247.58 451.28 246.73 452.83 245.82 454.37C244.92 455.9 243.95 457.42 242.94 458.92C237.37 455.79 232.05 452.5 226.87 449.07C214.1 440.66 202.43 431.44 192 421.53C181.57 411.61 172.42 401.05 164.66 389.95C156.91 378.87 150.57 367.3 145.75 355.39C140.92 343.48 137.61 331.29 135.87 318.95C134.93 312.12 134.47 305.2 134.47 298.18C134.46 292.33 134.81 286.48 135.49 280.65C136.19 274.82 137.23 269.02 138.61 263.25C140 257.49 141.73 251.77 143.8 246.11C145.86 240.45 148.27 234.86 151.02 229.34C147.47 238.64 145.79 248.26 146.09 257.9C146.38 267.53 148.61 277.1 152.73 286.28C156.84 295.46 162.78 304.17 170.39 312.15C177.98 320.12 187.15 327.27 197.61 333.38C198.95 333.96 200.27 334.57 201.58 335.18C202.89 335.81 204.18 336.45 205.45 337.09C206.73 337.75 208 338.41 209.24 339.1C210.49 339.77 211.72 340.47 212.93 341.18C214.43 342.06 215.92 342.96 217.39 343.88C217.87 344.2 218.37 344.52 218.78 344.88C219.18 345.24 219.98 345.65 220.56 346.05L220.78 346.2C221.26 346.53 221.73 346.84 222.18 347.19C222.34 347.3 222.51 347.42 222.66 347.54L222.75 347.59C223.15 347.86 223.54 348.15 223.92 348.43L224.35 348.73L224.9 349.15L226.58 350.4L226.99 350.72C227.69 351.25 228.39 351.79 229.07 352.35C229.75 352.9 230.46 353.5 231.19 354.09C231.28 354.16 231.38 354.26 231.49 354.34C231.92 354.7 232.34 355.07 232.74 355.44L233.23 355.85C233.61 356.18 233.98 356.51 234.35 356.85C234.56 357.03 234.75 357.21 234.94 357.39C235.14 357.57 235.6 357.98 235.91 358.29C236.21 358.59 236.76 359.08 237.16 359.48C237.8 360.08 238.43 360.71 239.03 361.33L239.03 361.33C239.03 361.33 239.18 361.48 239.26 361.56C239.79 362.11 240.32 362.65 240.82 363.2C241.32 363.76 242.02 364.48 242.59 365.14C243.16 365.8 243.7 366.4 244.25 367.05C244.79 367.69 245.33 368.34 245.85 368.98C245.86 368.99 245.86 368.99 245.88 369C245.88 369.01 245.89 369.02 245.9 369.03C245.9 369.04 245.92 369.04 245.92 369.05C245.92 369.06 245.93 369.07 245.93 369.08C246.27 369.5 246.6 369.92 246.92 370.33C247.24 370.75 247.55 371.15 247.84 371.56L247.84 371.56C247.84 371.57 247.84 371.57 247.84 371.58C247.84 371.58 247.84 371.59 247.84 371.6L247.84 371.61C247.84 371.62 247.84 371.62 247.84 371.63C248.2 372.12 248.58 372.62 248.93 373.13C249.51 373.93 250.08 374.75 250.62 375.58C250.88 375.95 251.13 376.32 251.36 376.7C251.6 377.08 251.81 377.38 252.02 377.69L252.56 378.55C252.8 378.93 253.01 379.3 253.24 379.67L253.91 380.82C254.09 381.13 254.26 381.44 254.44 381.76C254.89 382.56 255.32 383.37 255.74 384.18C256.01 384.74 256.31 385.3 256.57 385.86C256.84 386.42 257.1 386.95 257.35 387.51C257.48 387.8 257.62 388.08 257.74 388.38L258.33 389.7C258.56 390.28 258.8 390.86 259.02 391.44C259.16 391.78 259.29 392.12 259.43 392.43L259.52 392.69C259.68 393.11 259.83 393.53 259.97 393.95C260.21 394.62 260.43 395.26 260.64 395.89C260.64 395.9 260.64 395.91 260.64 395.93C260.64 395.94 260.64 395.95 260.64 395.97C260.64 395.98 260.64 395.99 260.64 396C260.64 396.02 260.64 396.03 260.64 396.04C260.78 396.57 260.96 397.03 261.12 397.62C261.12 397.62 261.12 397.62 261.12 397.67C261.46 398.53 261.74 399.41 261.97 400.29C262.2 401.17 262.36 402.07 262.48 402.96C262.59 403.86 262.64 404.75 262.63 405.64C262.63 406.55 262.57 407.44 262.45 408.34Z" />
	<path id="Layer" fill-rule="evenodd" class="shp4" d="M585.14 383.23C581.21 384.78 577.34 386.4 573.53 388.08C569.7 389.76 565.94 391.51 562.23 393.32C558.53 395.13 554.88 396.99 551.3 398.93C547.72 400.86 544.21 402.85 540.76 404.9C535.9 407.79 531.15 410.8 526.51 413.92L522.99 416.34C521.88 417.41 520.71 418.49 519.5 419.48C518.69 420.17 517.85 420.83 517 421.49C516.15 422.14 515.28 422.79 514.39 423.41C513.49 424.04 512.59 424.66 511.66 425.25C510.72 425.86 509.78 426.44 508.82 427.01C505.78 428.82 502.56 430.49 499.21 431.99C495.85 433.48 492.36 434.82 488.74 435.97C485.13 437.13 481.4 438.11 477.6 438.91C473.81 439.7 469.92 440.31 466.01 440.73C459.87 448.06 454.87 455.15 450.69 460.44C450.12 461.5 449.54 462.56 448.91 463.6C448.28 464.64 447.63 465.69 446.95 466.71C446.28 467.74 445.57 468.75 444.83 469.77C444.09 470.77 443.34 471.77 442.54 472.76C441.71 473.82 440.83 474.89 439.93 475.89C437.98 478.11 435.9 480.26 433.7 482.35C432.71 483.28 431.72 484.18 430.69 485.05C428.68 486.82 426.54 488.54 424.34 490.2C422.13 491.86 419.83 493.45 417.45 494.98C415.07 496.51 412.61 497.98 410.07 499.38C407.54 500.77 404.92 502.1 402.24 503.35C402.2 503.37 402.16 503.39 402.12 503.42C402.06 503.44 402.02 503.46 401.98 503.48C401.94 503.5 401.88 503.52 401.84 503.54C401.8 503.56 401.74 503.58 401.7 503.6C398.83 504.94 395.91 506.18 392.89 507.35C391.49 507.89 390.09 508.42 388.65 508.91C387.23 509.41 385.8 509.9 384.35 510.35C382.9 510.81 381.44 511.25 379.96 511.67C378.49 512.09 377 512.49 375.51 512.86C371.04 514 366.47 514.95 361.85 515.72C357.22 516.47 352.53 517.05 347.82 517.43C343.1 517.81 338.35 518 333.61 518C328.86 518 324.12 517.8 319.4 517.41C317.59 517.26 315.8 517.1 313.99 516.89C312.19 516.69 310.41 516.46 308.61 516.2C306.83 515.95 305.06 515.67 303.29 515.36C301.52 515.05 299.75 514.71 298.01 514.34C299.99 513.68 301.9 512.97 303.79 512.24C306.81 511.08 309.77 509.83 312.65 508.49C315.53 507.16 318.33 505.74 321.05 504.25C323.76 502.75 326.39 501.17 328.93 499.53C331.46 497.88 333.9 496.16 336.24 494.36L336.35 494.27C337.09 493.72 337.8 493.15 338.51 492.57C339.22 492 339.93 491.42 340.61 490.82C341.29 490.24 341.98 489.65 342.64 489.05C343.31 488.45 343.97 487.85 344.61 487.23C345.16 486.71 345.71 486.19 346.25 485.65C346.78 485.12 347.31 484.59 347.84 484.05C348.35 483.51 348.87 482.97 349.36 482.42C349.86 481.88 350.34 481.32 350.83 480.76C352.06 479.36 353.23 477.94 354.34 476.5C355.46 475.05 356.51 473.59 357.5 472.1C358.51 470.61 359.45 469.11 360.33 467.58C361.21 466.06 362.03 464.52 362.79 462.96C363.17 462.2 363.53 461.44 363.87 460.68C364.49 459.28 365.06 457.87 365.59 456.46C366.11 455.04 366.6 453.61 367.01 452.18C367.45 450.75 367.82 449.3 368.16 447.86C368.49 446.41 368.77 444.96 369 443.5C369 443.49 369 443.48 369 443.47C369 443.46 369 443.45 369 443.44C369 443.43 369 443.42 369 443.41C369 443.4 369 443.39 369 443.38L370.69 443.04L372.35 442.69L373.98 442.32C375.06 442.07 376.13 441.8 377.21 441.51C377.97 441.32 378.72 441.09 379.37 440.9C380.01 440.72 380.65 440.54 381.27 440.34L383.11 439.75L383.28 439.69L383.93 439.46C384.48 439.29 385.03 439.1 385.58 438.9L385.84 438.81L386.7 438.49L387.02 438.36C387.54 438.17 388.08 437.97 388.6 437.77L390.12 437.15C390.63 436.95 391.13 436.73 391.62 436.52C392.46 436.17 393.28 435.79 394.08 435.42C395.53 434.76 396.94 434.05 398.33 433.33C399.71 432.6 401.07 431.85 402.4 431.05C403.72 430.27 405 429.45 406.26 428.62C407.52 427.77 408.73 426.91 409.92 426.02C411.21 425.3 412.51 424.64 413.82 423.91C415.13 423.19 416.52 422.48 417.91 421.76C419.75 420.82 421.61 419.88 423.48 418.97C425.35 418.07 427.24 417.17 429.13 416.29C430.08 415.84 431.04 415.41 431.99 414.98L434.87 413.69L437.02 412.76L437.31 412.64C438.07 412.32 438.74 412.01 439.47 411.71L441.93 410.72L444.19 409.81L446.32 408.95L446.5 408.87L446.79 408.76C447.68 408.39 448.53 408.07 449.58 407.66C450.62 407.25 451.68 406.86 452.75 406.46L455.94 405.29L459.14 404.07L462.37 402.95L465.61 401.88L469.04 400.77C470.48 400.31 471.97 399.87 473.36 399.43C474.34 399.16 475.03 398.98 476.15 398.62C477.26 398.26 478.37 397.95 479.49 397.63L479.81 397.54C480.95 397.17 482.07 396.91 483.25 396.55C484.43 396.18 485.63 395.86 486.83 395.55L490.39 394.63C493.05 393.96 495.74 393.33 498.46 392.7L501.38 392.06L505.56 391.17L505.95 391.09L507.87 390.7L508.48 390.59C508.72 390.53 508.95 390.44 509.21 390.44C510.25 390.23 511.28 390.03 512.32 389.84C512.35 389.83 512.37 389.83 512.39 389.82C512.42 389.82 512.45 389.81 512.46 389.81C512.49 389.8 512.52 389.8 512.55 389.79C512.56 389.79 512.59 389.78 512.62 389.78C513.83 389.55 515.22 389.32 516.28 389.12C517.34 388.92 518.4 388.74 519.47 388.56L520.49 388.39L523.84 387.85C526.81 387.37 529.72 386.94 532.77 386.54C535.82 386.15 538.87 385.77 541.94 385.43L544.51 385.15L545.12 385.15L547.64 384.91C548.63 384.82 549.63 384.74 550.63 384.64C551.64 384.54 552.64 384.46 553.66 384.38L556.51 384.16L556.68 384.16C558.6 384.02 560.55 383.89 562.48 383.78L565.27 383.62L568.54 383.48C569.34 383.45 569.99 383.39 570.73 383.39C572.2 383.33 573.69 383.28 575.2 383.24L580.21 383.24C581.84 383.22 583.53 383.2 585.14 383.23ZM467.23 439.36C467.25 439.36 467.25 439.35 467.26 439.34C467.23 439.35 467.22 439.36 467.19 439.36L467.23 439.36ZM467.26 439.34C473.82 436.65 478.1 430.81 481.94 424.6C480.59 425.76 479.25 426.94 477.97 428.13C476.68 429.33 475.41 430.54 474.18 431.78C472.96 433.01 471.76 434.26 470.6 435.52C469.46 436.78 468.33 438.05 467.26 439.34ZM389.17 90.96L389.17 90.96C97 -34.72 97 -34.72 97 -34.72L97 -34.72L97 -34.72L97 -34.72L389.17 90.96Z" />
	<path id="Layer" fill-rule="evenodd" class="shp5" d="M328.91 465.74C329.01 465.67 329.12 465.6 329.22 465.52C329.32 465.45 329.4 465.38 329.5 465.3C329.6 465.23 329.69 465.15 329.78 465.07L329 466.06L328.61 465.94C328.72 465.87 328.82 465.81 328.91 465.74ZM362.24 355.22C363.31 355.35 364.38 355.47 365.47 355.57C364.37 355.48 363.31 355.35 362.24 355.22Z" />
	<path id="Layer" class="shp6" d="M677.02 393.63C669.71 391.9 662.3 390.38 654.81 389.07C647.32 387.77 639.77 386.67 632.15 385.8C624.55 384.93 616.89 384.27 609.2 383.83C601.53 383.4 593.82 383.19 586.12 383.19L585.2 383.19C583.53 383.19 581.84 383.19 580.17 383.19L578.22 383.19L578.12 383.19L577.08 383.19L575.16 383.19C573.65 383.23 572.16 383.28 570.69 383.34C569.95 383.34 569.29 383.4 568.5 383.43L565.23 383.57L562.44 383.73C560.51 383.84 558.56 383.97 556.64 384.11L556.47 384.11L553.61 384.33C552.6 384.41 551.59 384.49 550.59 384.59C549.59 384.69 548.59 384.77 547.6 384.86L545.08 385.1L544.91 385.1L544.46 385.1L541.9 385.38C538.82 385.72 535.78 386.1 532.73 386.49C529.68 386.89 526.77 387.32 523.8 387.8L520.44 388.34L519.43 388.51C518.35 388.69 517.3 388.87 516.24 389.07C515.18 389.27 513.79 389.5 512.58 389.73C512.55 389.73 512.52 389.74 512.51 389.74C512.48 389.75 512.45 389.75 512.42 389.76C512.41 389.76 512.38 389.77 512.35 389.77C512.32 389.78 512.31 389.78 512.28 389.79C511.24 389.98 510.21 390.18 509.16 390.39C508.91 390.39 508.68 390.48 508.44 390.54L507.83 390.65L505.91 391.04L505.52 391.12L501.34 392.01L498.41 392.65C495.7 393.28 493.01 393.91 490.35 394.58L486.79 395.5C485.59 395.81 484.39 396.13 483.21 396.5C482.02 396.86 480.91 397.12 479.77 397.49L479.45 397.58C478.33 397.9 477.22 398.21 476.1 398.57C474.99 398.93 474.29 399.11 473.32 399.38C471.93 399.82 470.44 400.26 469 400.72L465.56 401.83L462.33 402.9L459.1 404.03L455.94 405.29L452.75 406.46C451.68 406.86 450.62 407.25 449.58 407.66C448.53 408.07 447.68 408.39 446.79 408.76L446.5 408.87L446.32 408.95L444.19 409.81L441.93 410.72L439.47 411.71C438.74 412.01 438.07 412.32 437.31 412.64L437.02 412.76L434.87 413.69L431.99 414.98C431.04 415.41 430.08 415.84 429.13 416.29C427.24 417.17 425.35 418.07 423.48 418.97C421.61 419.88 419.75 420.82 417.91 421.76L417.91 421.76C416.52 422.48 415.13 423.19 413.82 423.91C412.51 424.64 411.21 425.3 409.92 426.02C408.73 426.91 407.52 427.77 406.26 428.62C405 429.45 403.72 430.27 402.4 431.05C401.07 431.85 399.71 432.6 398.33 433.33C396.94 434.05 395.53 434.76 394.08 435.42C393.28 435.79 392.46 436.17 391.62 436.52C391.13 436.73 390.63 436.95 390.12 437.15L388.6 437.77C388.08 437.97 387.54 438.17 387.02 438.36L386.7 438.49L385.84 438.81L385.58 438.9C385.03 439.1 384.48 439.29 383.93 439.46L383.28 439.69L383.11 439.75L381.27 440.34C380.65 440.54 380.01 440.72 379.37 440.9C378.72 441.09 377.97 441.32 377.21 441.51C376.13 441.8 375.06 442.07 373.98 442.32L372.35 442.69L370.69 443.04L369 443.38L367.29 443.69C366.54 443.82 365.79 443.94 365.04 444.06L364.56 444.13C364.52 444.14 364.47 444.14 364.42 444.15C364.38 444.15 364.33 444.16 364.28 444.17C364.24 444.18 364.19 444.18 364.14 444.19C364.1 444.2 364.05 444.21 364.01 444.22L363.73 444.22L362.92 444.33C362.53 444.39 362.17 444.44 361.78 444.48C360.97 444.58 360.16 444.68 359.33 444.76L357.61 444.94L357.39 444.94L356.49 445.01C356.18 445.01 355.87 445.07 355.57 445.08L354.36 445.17C353.58 445.22 352.78 445.25 351.99 445.28L351.58 445.28C350.83 445.28 350.07 445.34 349.3 445.36C341.96 452.13 335.85 458.74 330.79 463.65L330.79 463.65C330.5 464.07 330.18 464.48 329.86 464.91L329.86 464.91L329.86 464.91C329.78 464.99 329.68 465.07 329.58 465.14C329.48 465.22 329.4 465.29 329.3 465.36C329.21 465.44 329.09 465.51 329 465.58C328.9 465.65 328.8 465.72 328.69 465.79L329.08 465.9L328.93 466.09C328.7 466.38 328.48 466.67 328.25 466.95C328.01 467.23 327.92 467.33 327.77 467.52L327.3 468.1L326.69 468.82L326.6 468.9C325.07 470.69 323.44 472.43 321.74 474.13L320.68 475.12C319.68 476.11 318.64 477.11 317.58 478.02L317.58 478.02C315.28 480.08 312.86 481.99 310.32 483.92L308.65 485.13L308.03 485.57C307.66 485.83 307.32 486.08 306.95 486.32L306.95 486.32L306.7 486.48C303.75 488.53 300.66 490.48 297.44 492.3C294.21 494.13 290.87 495.85 287.42 497.44C283.96 499.04 280.4 500.51 276.74 501.86C273.07 503.2 269.33 504.42 265.5 505.5C264.02 505.92 262.53 506.31 261.04 506.69C259.54 507.06 258.03 507.41 256.52 507.75C255 508.08 253.47 508.39 251.93 508.67C250.4 508.96 248.86 509.23 247.31 509.48C242.67 510.23 237.98 510.8 233.25 511.18C228.53 511.54 223.78 511.73 219.01 511.71C214.27 511.7 209.5 511.49 204.78 511.1C200.06 510.69 195.37 510.1 190.75 509.32C188.98 509.02 187.21 508.69 185.45 508.35C183.71 507.99 181.97 507.61 180.23 507.21C178.51 506.81 176.79 506.37 175.09 505.91C173.38 505.46 171.7 504.97 170.02 504.46C172.09 503.98 174.09 503.47 176.1 502.87C180.3 501.69 184.41 500.35 188.42 498.85C192.42 497.35 196.3 495.7 200.06 493.9C203.81 492.12 207.43 490.17 210.88 488.09C214.35 486.03 217.65 483.81 220.77 481.49C221.41 481.02 222.04 480.54 222.66 480.07C223.29 479.58 223.9 479.09 224.5 478.61C225.1 478.11 225.7 477.61 226.28 477.11C226.88 476.61 227.45 476.11 228.02 475.59L228.02 475.59C229.47 474.31 230.88 472.99 232.23 471.65C233.58 470.3 234.89 468.94 236.13 467.55C237.37 466.16 238.57 464.74 239.69 463.3C240.84 461.86 241.92 460.4 242.94 458.92C243.95 457.42 244.93 455.9 245.82 454.36C246.73 452.82 247.58 451.26 248.36 449.69C249.13 448.13 249.86 446.54 250.51 444.94C251.18 443.34 251.78 441.73 252.31 440.1C252.71 438.87 253.16 437.61 253.62 436.34C253.84 435.69 254.06 435.05 254.3 434.41C255.28 431.71 256.31 428.94 257.31 426.13C257.88 424.53 258.45 422.91 258.98 421.28C259.51 419.65 260.04 418.02 260.53 416.38C260.72 415.72 260.89 415.06 261.08 414.39L261.63 412.23C261.77 411.67 261.89 411.12 262 410.55L262.1 410.08C262.24 409.5 262.34 408.9 262.45 408.31C262.59 407.42 262.68 406.54 262.71 405.65C262.75 404.76 262.73 403.88 262.64 402.99C262.57 402.11 262.43 401.22 262.24 400.35C262.04 399.47 261.81 398.6 261.5 397.74C261.19 396.87 261.5 397.74 261.5 397.69C261.35 397.15 261.19 396.64 261.01 396.11C261.01 396.1 261.01 396.09 261.01 396.07C261.01 396.06 261.01 396.05 261.01 396.04C261.01 396.02 261.01 396.01 261.01 396C261.01 395.98 261.01 395.97 261.01 395.96C260.8 395.29 260.58 394.65 260.34 394.02C260.21 393.6 260.05 393.18 259.9 392.76L259.8 392.5C259.66 392.17 259.54 391.83 259.4 391.51C259.18 390.93 258.94 390.35 258.7 389.77L258.12 388.45C257.99 388.15 257.85 387.87 257.73 387.58C257.48 387.02 257.21 386.47 256.95 385.93C256.68 385.38 256.39 384.81 256.11 384.25C255.69 383.44 255.26 382.63 254.82 381.83C254.64 381.51 254.47 381.2 254.29 380.89L253.62 379.74C253.38 379.37 253.17 379 252.94 378.62L252.39 377.76C252.18 377.42 251.98 377.08 251.74 376.77C251.5 376.46 251.25 376.02 251 375.65C250.46 374.82 249.89 374 249.3 373.2C248.95 372.69 248.58 372.2 248.22 371.7C248.22 371.69 248.22 371.69 248.22 371.68C248.22 371.68 248.22 371.67 248.22 371.66L248.22 371.65C248.22 371.64 248.22 371.64 248.22 371.63L248.22 371.63C247.92 371.22 247.62 370.81 247.3 370.4C246.98 369.99 246.64 369.57 246.31 369.15C246.31 369.14 246.29 369.13 246.29 369.12C246.29 369.11 246.28 369.11 246.28 369.1C246.27 369.09 246.25 369.08 246.25 369.07C246.24 369.06 246.24 369.06 246.22 369.05C245.71 368.41 245.18 367.76 244.62 367.12C244.07 366.47 243.54 365.84 242.97 365.21C242.4 364.58 241.8 363.91 241.2 363.27C240.6 362.64 240.17 362.18 239.64 361.63C239.55 361.55 239.48 361.46 239.4 361.4C239.32 361.33 239.4 361.4 239.4 361.4C238.8 360.78 238.18 360.15 237.54 359.55C237.13 359.15 236.71 358.75 236.28 358.36C235.85 357.96 235.53 357.66 235.32 357.46C235.13 357.28 234.93 357.09 234.72 356.92C234.36 356.57 233.98 356.24 233.61 355.92L233.12 355.51C232.72 355.14 232.3 354.77 231.87 354.41C231.76 354.33 231.66 354.23 231.56 354.15C230.86 353.57 230.17 352.98 229.44 352.42C228.72 351.85 228.05 351.32 227.37 350.79L226.95 350.47L225.11 349.11L224.56 348.69L224.12 348.39C223.75 348.11 223.36 347.82 222.96 347.55L222.87 347.5C222.72 347.38 222.55 347.26 222.38 347.15C221.91 346.81 221.44 346.5 220.99 346.16L220.77 346.01C220.18 345.61 219.59 345.22 218.99 344.84C218.39 344.46 218.01 344.19 217.59 343.84C216.2 342.92 214.64 342.02 213.14 341.14C211.93 340.43 210.7 339.73 209.45 339.06C208.21 338.37 206.94 337.71 205.66 337.05C204.39 336.41 203.1 335.77 201.79 335.14C200.48 334.53 199.16 333.92 197.82 333.34C187.36 327.23 178.19 320.09 170.58 312.11C162.98 304.14 157.02 295.42 152.91 286.25C148.79 277.06 146.55 267.5 146.25 257.86C145.96 248.23 147.62 238.61 151.17 229.3C152.28 227.05 153.47 224.81 154.69 222.59C155.92 220.37 157.21 218.17 158.55 215.97C159.89 213.79 161.28 211.61 162.73 209.46C164.18 207.3 165.68 205.17 167.23 203.05C173.14 194.98 179.8 187.19 187.17 179.74C194.52 172.29 202.57 165.2 211.23 158.52C219.91 151.82 229.19 145.54 239.03 139.72C248.86 133.91 259.22 128.56 270.04 123.72C271.29 123.29 272.54 122.83 273.77 122.35C275.01 121.88 276.23 121.4 277.43 120.89C278.64 120.38 279.84 119.86 281.01 119.32C282.19 118.78 283.36 118.23 284.51 117.65C287.78 116.02 290.93 114.28 293.93 112.41C296.94 110.55 299.81 108.57 302.52 106.48C305.23 104.39 307.77 102.21 310.16 99.92C312.54 97.64 314.75 95.28 316.77 92.82C318.41 90.84 319.95 88.85 321.32 86.73L321.32 86.73C324.61 81.77 329.51 71.08 329.76 71.02C330.57 64.79 332.42 58.65 335.26 52.74C338.1 46.83 341.92 41.17 346.64 35.9C351.35 30.63 356.93 25.77 363.25 21.44C369.58 17.11 376.59 13.32 384.17 10.17C385.73 9.52 387.33 8.89 388.93 8.3C390.55 7.7 392.18 7.14 393.82 6.6C395.48 6.05 397.15 5.55 398.83 5.07C400.52 4.59 402.22 4.14 403.93 3.72C396.26 8.06 389.66 13.29 384.41 19.19C379.17 25.09 375.34 31.58 373.11 38.39C370.88 45.2 370.29 52.22 371.32 59.16C372.36 66.11 375.02 72.89 379.21 79.2L379.21 79.2C379.95 79.74 380.6 80.29 381.31 80.86C381.64 81.14 381.96 81.42 382.28 81.71C382.58 82 382.89 82.28 383.19 82.57C383.49 82.87 383.78 83.16 384.07 83.47C384.35 83.76 384.63 84.06 384.91 84.37C385.28 84.8 385.65 85.22 386.01 85.66C386.36 86.1 386.69 86.54 387.01 86.98C387.33 87.44 387.64 87.89 387.93 88.34C388.22 88.8 388.5 89.27 388.76 89.73C388.97 90.1 389.18 90.47 389.36 90.85L389.36 90.85L389.36 90.85C389.82 91.73 390.2 92.63 390.55 93.55C390.76 94.11 390.94 94.68 391.1 95.25C391.27 95.81 391.42 96.39 391.54 96.96C391.66 97.54 391.77 98.12 391.84 98.69C391.93 99.27 391.98 99.85 392.02 100.43C392.02 100.96 392.02 101.48 392.02 102.01C392.02 102.54 392.02 102.78 392.02 103.15C392.01 103.44 392 103.73 391.97 104.03C391.94 104.31 391.91 104.6 391.87 104.89C391.84 105.18 391.8 105.47 391.74 105.75C391.7 106.04 391.65 106.33 391.59 106.62L391.59 106.62C391.77 107.14 391.94 107.66 392.13 108.18L392.3 108.61C392.47 109.04 392.64 109.47 392.82 109.9C393.08 110.57 393.37 111.23 393.68 111.88C393.83 112.2 393.97 112.52 394.14 112.88C394.31 113.23 394.35 113.3 394.46 113.51C394.96 114.5 395.49 115.5 396.08 116.49C396.38 117.01 396.69 117.53 397.04 118.05C397.38 118.57 397.69 119.04 398.04 119.59C398.28 119.94 398.53 120.28 398.78 120.58C399.56 121.69 400.39 122.76 401.26 123.81C401.58 124.2 401.9 124.59 402.23 124.96C402.87 125.72 403.62 126.45 404.25 127.19C404.65 127.63 405.09 128.06 405.52 128.49L405.66 128.63L406.87 129.8C407.06 129.99 407.26 130.17 407.47 130.35C408.44 131.26 409.47 132.15 410.53 133.03L411.42 133.74C411.83 134.08 412.26 134.42 412.69 134.74L412.69 134.74C416.31 137.54 420.28 140.1 424.55 142.39C428.83 144.67 433.38 146.67 438.17 148.35C442.96 150.04 447.95 151.41 453.09 152.45C458.22 153.48 463.49 154.17 468.81 154.52C466.61 154.95 464.38 155.34 462.14 155.66C459.9 155.99 457.65 156.27 455.38 156.51C453.13 156.74 450.84 156.92 448.57 157.05C446.29 157.17 444.01 157.24 441.72 157.27C441.04 157.27 440.33 157.27 439.69 157.27C434.38 157.28 429.09 157.02 423.84 156.48C418.59 155.93 413.41 155.13 408.33 154.06C403.25 152.98 398.28 151.65 393.46 150.06C388.65 148.48 384 146.66 379.56 144.59L379.56 144.59C378.59 144.48 370.43 142.25 363.71 140.62C361.37 140.03 359.22 139.51 357.6 139.19C356.08 138.87 354.56 138.58 353.03 138.31C351.51 138.04 349.97 137.8 348.42 137.58C346.88 137.36 345.33 137.16 343.77 136.99C342.23 136.82 340.65 136.67 339.09 136.55C338.06 136.48 337.03 136.4 336 136.34C334.97 136.28 333.94 136.23 332.91 136.18C331.87 136.14 330.84 136.11 329.8 136.09C328.77 136.07 327.73 136.06 326.7 136.06C324.62 136.06 322.52 136.06 320.49 136.19C316.28 136.35 312.08 136.68 307.93 137.19C303.76 137.7 299.66 138.37 295.6 139.22C291.57 140.06 287.58 141.07 283.7 142.25C279.81 143.42 276.04 144.75 272.36 146.23C271.89 146.41 271.44 146.6 270.97 146.79C267.27 148.33 263.7 150.03 260.26 151.87C256.84 153.71 253.56 155.69 250.46 157.8C247.35 159.92 244.41 162.15 241.67 164.49C238.93 166.85 236.38 169.31 234.03 171.87C231.67 174.44 234.03 171.87 234.03 171.87C231.81 174.9 229.78 177.99 227.93 181.14C226.07 184.28 224.4 187.48 222.91 190.73C221.42 193.96 220.11 197.25 219 200.57C217.9 203.89 216.97 207.23 216.24 210.61C215.9 212.23 215.59 213.86 215.31 215.49C215.05 217.12 214.84 218.76 214.66 220.39C214.47 222.02 214.35 223.66 214.25 225.3C214.17 226.95 214.13 228.59 214.13 230.23C214.13 240.49 215.88 250.71 219.35 260.66C222.8 270.62 227.94 280.25 234.65 289.32C241.36 298.39 249.59 306.85 259.16 314.51C268.74 322.17 279.58 328.97 291.44 334.77C294.5 336.28 297.62 337.71 300.81 339.06C301.47 339.35 302.11 339.61 302.78 339.88C303.44 340.15 304.08 340.42 304.75 340.69C306.06 341.21 307.4 341.74 308.74 342.25L310.77 343L312.63 343.68C315.94 344.86 319.31 345.96 322.72 346.98C323.58 347.25 324.44 347.5 325.31 347.75L325.49 347.75C326.39 348.02 327.31 348.27 328.27 348.52C329.23 348.77 330.25 349.06 331.24 349.31L334.02 350C335.24 350.31 336.48 350.6 337.71 350.89C338.58 351.09 339.46 351.28 340.33 351.46L340.81 351.56C341.61 351.74 342.42 351.91 343.24 352.07L344.64 352.35C345.36 352.5 346.03 352.63 346.79 352.75L348.6 353.09L351.81 353.64L353.91 353.98C354.42 354.07 354.95 354.14 355.48 354.21L357.68 354.53L359.08 354.73L361.86 355.09L362.33 355.09L362.33 355.09C363.41 355.22 364.48 355.34 365.57 355.45C366.65 355.56 367.72 355.67 368.81 355.77C369.88 355.44 370.98 355.12 372.07 354.78C374.1 354.17 376.13 353.6 378.2 353.02L382.65 351.83C383.53 351.59 384.42 351.37 385.33 351.15L387.58 350.58C389.52 350.09 391.47 349.59 393.42 349.19L396.2 348.57C397.11 348.37 398.01 348.17 398.99 347.98C399.96 347.79 400.82 347.59 401.77 347.39C406.37 346.45 411 345.58 415.7 344.78C417.09 344.55 418.36 344.33 419.69 344.12C423.45 343.54 427.23 342.99 431.01 342.51C434.8 342.03 438.62 341.6 442.42 341.22C446.24 340.86 450.06 340.53 453.89 340.27C457.72 340 461.57 339.79 465.41 339.63L466.27 339.63C471.55 339.42 476.86 339.33 482.22 339.33L482.47 339.33C485.48 339.33 488.48 339.33 491.46 339.43C494.17 339.49 496.85 339.58 499.54 339.69C510.01 340.13 520.44 340.97 530.79 342.23C541.12 343.48 551.37 345.13 561.45 347.18C571.55 349.24 581.46 351.68 591.17 354.51C600.89 357.34 610.37 360.54 619.59 364.12C623.37 365.58 627.08 367.09 630.73 368.67C634.87 370.46 638.93 372.34 642.95 374.28C646.94 376.22 650.88 378.24 654.75 380.33C658.61 382.4 662.4 384.56 666.12 386.77C669.84 389 673.47 391.28 677.02 393.63L677.02 393.63Z" />
	<path id="Layer" class="shp7" d="M677.93 394.22C676.62 395.99 675.27 397.76 673.87 399.5C672.48 401.24 671.06 402.97 669.6 404.68C668.15 406.4 666.65 408.1 665.13 409.79C663.6 411.46 662.04 413.13 660.44 414.78C655.66 419.71 650.6 424.49 645.24 429.12C639.59 434.01 633.63 438.71 627.36 443.2C621.11 447.69 614.55 451.98 607.74 456.04C600.93 460.1 593.86 463.94 586.56 467.54C579.25 471.14 571.72 474.5 563.97 477.6L563.88 477.6C558.82 479.59 553.66 481.58 548.42 483.38C542.49 485.43 536.46 487.34 530.32 489.1L530.32 489.1L530.22 489.1C522.02 491.44 513.66 493.52 505.18 495.31C496.71 497.1 488.12 498.62 479.46 499.85C470.79 501.09 462.04 502.03 453.25 502.68C444.47 503.34 435.64 503.71 426.8 503.78L422.91 503.78C415.99 503.78 409.12 503.6 402.34 503.25C393.61 502.82 384.99 502.11 376.48 501.12C373.07 500.74 369.67 500.3 366.29 499.81C362.91 499.34 359.54 498.81 356.18 498.24C352.82 497.68 349.48 497.07 346.15 496.42C342.83 495.76 339.51 495.07 336.22 494.33C334.43 493.92 332.63 493.52 330.86 493.09L330.15 492.91L328.89 492.6C326.71 492.08 324.55 491.53 322.41 490.94C318.57 489.95 314.75 488.85 310.98 487.72L306.88 486.45L306.88 486.45C307.25 486.22 307.59 485.97 307.96 485.71L308.58 485.27L310.25 484.06C312.79 482.17 315.21 480.22 317.51 478.16L317.51 478.16C318.57 477.17 319.61 476.25 320.61 475.26L321.67 474.27C323.37 472.57 325 470.83 326.53 469.04L326.62 468.96L327.23 468.24L327.7 467.66C327.86 467.47 328.02 467.29 328.18 467.09C328.33 466.89 328.64 466.52 328.86 466.23L329.01 466.04L329.79 465.05L329.79 465.05L329.79 465.05C330.11 464.62 330.43 464.21 330.72 463.79L330.72 463.79C335.78 458.88 341.86 452.27 349.23 445.5C350 445.5 350.76 445.5 351.51 445.42L351.92 445.42C352.71 445.42 353.51 445.35 354.29 445.3L355.5 445.22C355.8 445.22 356.11 445.17 356.42 445.15L357.4 445.02L357.63 445.02L359.34 444.84C360.16 444.77 360.98 444.67 361.79 444.56C362.18 444.56 362.54 444.47 362.93 444.41L363.74 444.3L364.02 444.3C364.06 444.29 364.12 444.28 364.16 444.27C364.2 444.26 364.26 444.26 364.3 444.25C364.34 444.24 364.4 444.23 364.44 444.23C364.48 444.22 364.53 444.22 364.58 444.21L365.05 444.14C365.8 444.02 366.55 443.9 367.31 443.77L369.02 443.46L370.7 443.12L372.36 442.77L373.99 442.4C375.08 442.15 376.15 441.88 377.22 441.59C377.93 441.4 378.61 441.19 379.38 440.98C380.15 440.78 380.66 440.62 381.29 440.42L383.13 439.83L383.29 439.77L383.95 439.54C384.49 439.36 385.05 439.18 385.59 438.98L385.85 438.89L386.72 438.57L387.04 438.44C387.55 438.25 388.1 438.05 388.61 437.85L390.13 437.23C390.64 437.03 391.15 436.81 391.63 436.6C392.47 436.25 393.29 435.87 394.1 435.5C395.55 434.84 396.95 434.13 398.35 433.41C399.72 432.68 401.09 431.93 402.41 431.13C403.73 430.35 405.02 429.53 406.27 428.7C407.54 427.85 408.75 426.99 409.93 426.1C411.23 425.38 412.52 424.68 413.83 423.99C415.14 423.29 416.55 422.56 417.92 421.84L417.92 421.84C419.78 420.9 421.64 419.98 423.49 419.05C425.36 418.15 427.25 417.25 429.15 416.37C430.1 415.92 431.06 415.49 432 415.06L434.89 413.77L437.03 412.84L437.32 412.72C438.03 412.4 438.72 412.09 439.48 411.79L441.95 410.8L444.2 409.89L446.33 409.03L446.51 408.95L446.81 408.84C447.74 408.47 448.69 408.11 449.59 407.74C450.5 407.37 451.69 406.94 452.77 406.54L455.95 405.37L459.17 404.22L462.4 403.1L465.63 402.03L469.07 400.92C470.47 400.46 471.93 400.02 473.39 399.58C474.29 399.31 475.19 399.03 476.17 398.77C477.16 398.51 478.4 398.12 479.52 397.78L479.84 397.69C480.98 397.36 482.13 397.04 483.28 396.7C484.42 396.35 485.66 396.05 486.86 395.7C488.05 395.35 489.24 395.09 490.42 394.78C493.08 394.11 495.77 393.48 498.48 392.85L501.41 392.21L505.59 391.32L505.97 391.24L507.9 390.84L508.51 390.74C508.75 390.68 508.98 390.64 509.23 390.59C510.28 390.38 511.31 390.18 512.35 389.99C512.38 389.98 512.39 389.98 512.42 389.97C512.45 389.97 512.48 389.96 512.49 389.96C512.52 389.95 512.55 389.95 512.58 389.94C512.59 389.94 512.62 389.93 512.65 389.93C513.86 389.7 515.08 389.47 516.31 389.27C517.53 389.06 518.42 388.89 519.5 388.71L520.51 388.54L523.87 387.99C526.84 387.52 529.82 387.09 532.8 386.69C535.78 386.3 538.89 385.92 541.97 385.58L544.53 385.3L544.98 385.3L545.15 385.3L547.67 385.05C548.66 384.96 549.66 384.87 550.66 384.79C551.66 384.71 552.67 384.61 553.68 384.53L556.54 384.31L556.71 384.31C558.63 384.17 560.58 384.04 562.51 383.93L565.3 383.77L568.57 383.62C569.31 383.62 569.96 383.55 570.76 383.53C572.23 383.48 573.72 383.43 575.23 383.39L577.15 383.39L578.19 383.39L578.29 383.39L580.24 383.39C581.91 383.39 583.6 383.39 585.27 383.39L586.19 383.39C593.89 383.39 601.6 383.59 609.27 384.03C616.96 384.47 624.62 385.12 632.22 386C639.84 386.87 647.39 387.96 654.88 389.27C662.37 390.58 669.78 392.1 677.09 393.82L677.93 394.22Z" />
	<path id="Layer" class="shp8" d="M389.17 90.96L389.17 90.96C97 -34.72 97 -34.72 97 -34.72L97 -34.72L97 -34.72L97 -34.72L389.17 90.96Z" />
	<path id="Layer" class="shp9" d="M660.44 414.78C655.48 419.7 650.21 424.44 644.64 429C618.84 450.2 586.85 467.66 552.47 481.76L552.47 481.76L548.43 483.39C544.14 485.07 539.79 486.65 535.34 488.12C530.9 489.59 526.39 490.95 521.82 492.2C517.25 493.44 512.62 494.57 507.94 495.59C503.25 496.61 498.52 497.5 493.75 498.28L493.51 498.28C488.04 499.18 482.52 499.97 476.98 500.65C471.45 501.33 465.88 501.9 460.3 502.36C454.73 502.81 449.12 503.16 443.52 503.39C437.91 503.63 432.28 503.75 426.67 503.76L422.78 503.76C415.86 503.76 409 503.58 402.22 503.23C393.49 502.8 384.87 502.09 376.36 501.1C372.95 500.72 369.55 500.28 366.16 499.79C362.78 499.32 359.41 498.79 356.05 498.22C352.7 497.66 349.36 497.05 346.03 496.4C342.7 495.74 339.39 495.05 336.1 494.31C334.3 493.9 332.51 493.5 330.74 493.07L330.03 492.89L328.76 492.58L325.82 491.82L325.64 491.82C319.56 490.19 311.95 487.98 306.81 486.44C307.18 486.21 307.52 485.96 307.89 485.7L308.51 485.26L310.18 484.05C312.72 482.16 315.14 480.21 317.44 478.15L317.44 478.15C318.5 477.16 319.54 476.24 320.54 475.25L321.6 474.26C323.3 472.56 324.93 470.82 326.46 469.03L326.55 468.95L327.16 468.23L327.63 467.65C327.79 467.46 327.95 467.28 328.11 467.08C328.26 466.88 328.57 466.51 328.79 466.22L328.94 466.03L328.55 465.91C328.66 465.84 328.76 465.78 328.86 465.71C328.96 465.64 329.07 465.57 329.16 465.49C329.26 465.42 329.35 465.35 329.44 465.27C329.54 465.2 329.64 465.12 329.72 465.04L329.72 465.04L329.72 465.04C332.62 465 335.5 464.88 338.37 464.68C341.25 464.48 344.12 464.21 346.96 463.84C349.82 463.48 352.63 463.04 355.43 462.52C358.23 462 361 461.41 363.73 460.73C364.87 460.44 365.98 460.12 367.1 459.79C368.21 459.45 369.31 459.09 370.38 458.71C371.47 458.34 372.54 457.93 373.59 457.51C374.64 457.08 375.68 456.65 376.69 456.18C378.14 455.52 379.56 454.82 380.94 454.08C382.33 453.36 383.68 452.6 385.01 451.82C386.33 451.04 387.62 450.22 388.88 449.38C390.13 448.53 391.34 447.67 392.52 446.77L396.44 444.66C404.57 440.32 413.04 436.3 421.77 432.59C430.51 428.9 439.52 425.53 448.76 422.51C458 419.49 467.46 416.83 477.09 414.52C486.73 412.23 496.52 410.29 506.45 408.73C509.41 408.26 512.38 407.83 515.37 407.43C523.73 406.32 532.18 405.45 540.76 404.87C549.98 404.2 559.32 403.88 568.79 403.88C576.49 403.88 584.21 404.08 591.88 404.52C599.57 404.96 607.23 405.61 614.83 406.49C622.45 407.36 629.99 408.46 637.49 409.76C644.98 411.07 652.39 412.59 659.7 414.32L660.44 414.78Z" />
	<path id="Layer" class="shp10" d="M645.24 429.12C619.8 451.48 599.41 464.28 563.97 477.6L563.88 477.6C560.26 478.98 556.45 480.36 552.47 481.74L552.47 481.74C545.65 484.11 538.3 486.54 530.3 489.09L530.3 489.09L530.21 489.09C527.27 490.02 524.3 490.91 521.31 491.77C518.31 492.61 515.29 493.42 512.26 494.18C509.22 494.95 506.17 495.67 503.09 496.35C500.01 497.03 496.91 497.67 493.8 498.25L493.57 498.25C486.1 499.65 478.56 500.82 470.94 501.75C463.34 502.67 455.66 503.36 447.98 503.82C440.27 504.26 432.56 504.47 424.83 504.44C417.12 504.4 409.4 504.13 401.72 503.62L401.72 503.62C392.93 503.07 384.48 502.25 376.41 501.24C373.02 500.82 369.65 500.36 366.26 499.86C362.89 499.37 359.54 498.83 356.19 498.25C352.84 497.68 349.51 497.07 346.18 496.42C342.87 495.77 339.55 495.09 336.27 494.36C332.62 493.57 329.15 492.75 325.88 491.96L325.7 491.96C324.55 491.68 323.44 491.4 322.34 491.11C316.34 489.6 311.05 488.13 306.56 486.79L306.81 486.62L306.81 486.62C307.18 486.39 307.52 486.14 307.89 485.88L308.51 485.44L310.18 484.23C312.72 482.34 315.14 480.39 317.44 478.33L317.44 478.33C318.5 477.34 319.54 476.42 320.54 475.43L321.6 474.44C323.3 472.74 324.93 471 326.46 469.21L326.55 469.13L327.16 468.41L327.63 467.83C327.79 467.64 327.95 467.45 328.11 467.26C328.26 467.06 328.57 466.69 328.79 466.4L328.94 466.21C339.3 469.14 349.33 473.62 357.88 471.57C358.16 471.5 358.42 471.43 358.69 471.35C358.96 471.27 359.23 471.19 359.48 471.1C359.74 471.01 360.01 470.91 360.26 470.81C360.51 470.71 360.76 470.6 361 470.49C362.45 469.81 363.88 469.1 365.27 468.36C366.67 467.61 368.03 466.85 369.35 466.04C370.68 465.24 371.97 464.41 373.24 463.56C374.49 462.7 375.72 461.81 376.9 460.91C378.2 460.19 379.49 459.5 380.8 458.79C388.93 454.45 397.4 450.43 406.13 446.72C414.88 443.03 423.88 439.66 433.12 436.64C442.36 433.62 451.82 430.96 461.46 428.66C471.09 426.36 480.88 424.43 490.81 422.87C493.78 422.39 496.76 421.96 499.74 421.57C506.27 420.7 512.88 419.98 519.58 419.42C522.37 419.19 525.16 418.98 527.95 418.81C530.75 418.64 533.55 418.5 536.35 418.38C539.15 418.26 541.94 418.18 544.76 418.12C547.56 418.06 550.37 418.03 553.17 418.03C583.15 418.03 638.39 427.74 644.67 428.96L645.24 429.12Z" />
	<path id="Layer" fill-rule="evenodd" class="shp11" d="M328.91 465.74C329.01 465.67 329.12 465.6 329.22 465.52C329.32 465.45 329.4 465.38 329.5 465.3C329.6 465.23 329.69 465.15 329.78 465.07L329 466.06L328.61 465.94C328.72 465.87 328.82 465.81 328.91 465.74ZM362.24 355.22C363.31 355.35 364.38 355.47 365.47 355.57C364.37 355.48 363.31 355.35 362.24 355.22Z" />
	<path id="Layer" class="shp12" d="M531.7 367.89C525.83 367.89 521.1 364.51 521.1 360.33C521.1 356.15 525.83 352.77 531.7 352.77C537.56 352.77 542.29 356.15 542.29 360.33C542.29 364.51 537.56 367.89 531.7 367.89Z" />
</svg>