<svg xmlns="http://www.w3.org/2000/svg" viewBox="0 0 789 518" width="800" height="525">
	<defs>
		<linearGradient id="grd1" gradientUnits="userSpaceOnUse"  x1="249.247" y1="292.088" x2="159.377" y2="374.906">
			<stop offset="0.27" stop-color="#1d76bb"  />
			<stop offset="0.97" stop-color="#008fc1"  />
		</linearGradient>
		<linearGradient id="grd2" gradientUnits="userSpaceOnUse"  x1="154.529" y1="260.631" x2="226.632" y2="449.907">
			<stop offset="0" stop-color="#3e3694"  />
			<stop offset="0.07" stop-color="#3c3f9a"  />
			<stop offset="0.19" stop-color="#3858ab"  />
			<stop offset="0.33" stop-color="#3080c5"  />
			<stop offset="0.48" stop-color="#27aee4"  />
			<stop offset="0.58" stop-color="#1e9bcc"  />
			<stop offset="0.76" stop-color="#107faa"  />
			<stop offset="0.9" stop-color="#076d95"  />
			<stop offset="1" stop-color="#04678d"  />
		</linearGradient>
		<linearGradient id="grd3" gradientUnits="userSpaceOnUse"  x1="150.979" y1="340.543" x2="222.755" y2="297.478">
			<stop offset="0" stop-color="#26b2e7"  />
			<stop offset="0.69" stop-color="#d9dbdc"  />
			<stop offset="1" stop-color="#4dc2f0"  />
		</linearGradient>
		<linearGradient id="grd4" gradientUnits="userSpaceOnUse"  x1="220.836" y1="338.998" x2="233.531" y2="338.998">
			<stop offset="0.13" stop-color="#29abe2"  />
			<stop offset="0.91" stop-color="#f2f2f2"  />
		</linearGradient>
		<linearGradient id="grd5" gradientUnits="userSpaceOnUse"  x1="157.946" y1="267.795" x2="340.841" y2="267.795">
			<stop offset="0.02" stop-color="#2a3793"  />
			<stop offset="0.59" stop-color="#039cd1"  />
			<stop offset="1" stop-color="#008fc1"  />
		</linearGradient>
		<linearGradient id="grd6" gradientUnits="userSpaceOnUse"  x1="213.324" y1="354.319" x2="341.152" y2="354.319">
			<stop offset="0" stop-color="#0389b6"  />
			<stop offset="0.69" stop-color="#82bcd7"  />
			<stop offset="1" stop-color="#358daf"  />
		</linearGradient>
		<linearGradient id="grd7" gradientUnits="userSpaceOnUse"  x1="213.344" y1="359.139" x2="335.128" y2="359.139">
			<stop offset="0" stop-color="#0389b6"  />
			<stop offset="0.69" stop-color="#82bcd7"  />
			<stop offset="0.96" stop-color="#45a6cc"  />
		</linearGradient>
		<linearGradient id="grd8" gradientUnits="userSpaceOnUse"  x1="213.238" y1="362.567" x2="329.895" y2="362.567">
			<stop offset="0" stop-color="#0389b6"  />
			<stop offset="0.69" stop-color="#82bcd7"  />
			<stop offset="1" stop-color="#3690b2"  />
		</linearGradient>
		<linearGradient id="grd9" gradientUnits="userSpaceOnUse"  x1="220.836" y1="338.998" x2="233.531" y2="338.998">
			<stop offset="0.14" stop-color="#2a3793"  />
			<stop offset="0.21" stop-color="#263f99"  />
			<stop offset="0.49" stop-color="#039cd1"  />
			<stop offset="1" stop-color="#008fc1"  />
		</linearGradient>
	</defs>
	<style>
		tspan { white-space:pre }
		.shp0 { fill: #2a3793 } 
		.shp1 { fill: #263f99 } 
		.shp2 { fill: url(#grd1) } 
		.shp3 { fill: url(#grd2) } 
		.shp4 { fill: url(#grd3) } 
		.shp5 { fill: url(#grd4) } 
		.shp6 { fill: url(#grd5) } 
		.shp7 { fill: url(#grd6) } 
		.shp8 { fill: #0b5461 } 
		.shp9 { fill: url(#grd7) } 
		.shp10 { fill: url(#grd8) } 
		.shp11 { fill: url(#grd9) } 
		.shp12 { fill: #010101 } 
	</style>
	<path id="Layer" class="shp0" d="M231.93 309.53C231.7 307.01 231.67 304.66 231.56 302.86L231.56 302.86C231.59 302.53 231.61 302.19 231.63 301.86C231.65 301.52 231.66 301.18 231.67 300.85C231.67 300.51 231.67 300.17 231.66 299.84C231.65 299.5 231.63 299.16 231.61 298.83C231.59 298.47 231.55 298.11 231.52 297.75L231.52 297.75C231.43 296.97 231.31 296.21 231.16 295.43C231.09 295.1 231.02 294.76 230.94 294.43C230.77 293.77 230.59 293.12 230.37 292.48C230.16 291.83 229.92 291.19 229.66 290.56C229.4 289.94 229.11 289.32 228.8 288.71C228.49 288.1 228.15 287.51 227.79 286.93C227.41 286.3 227 285.69 226.56 285.1C225.52 284.75 224.49 284.35 223.5 283.89C222.5 283.43 221.53 282.91 220.6 282.33C219.67 281.76 218.77 281.13 217.92 280.45C217.06 279.77 216.25 279.04 215.49 278.27C215.26 278.04 215.03 277.81 214.8 277.57C214.58 277.33 214.36 277.09 214.14 276.84C213.93 276.6 213.72 276.35 213.51 276.1C213.3 275.84 213.1 275.59 212.91 275.33C212.57 275.22 212.23 275.12 211.89 275.02C211.54 274.92 211.2 274.83 210.85 274.75C210.51 274.66 210.16 274.59 209.81 274.52C209.47 274.44 209.12 274.38 208.76 274.32C209.07 274.68 209.35 275.05 209.62 275.42C210.2 276.19 210.73 277 211.22 277.83C211.7 278.66 212.15 279.51 212.54 280.39C212.93 281.27 213.27 282.16 213.57 283.08C213.86 283.99 214.1 284.91 214.29 285.85C214.45 286.61 214.57 287.38 214.65 288.17L214.65 288.17C214.7 288.66 214.74 289.14 214.76 289.63C214.79 290.12 214.8 290.61 214.79 291.1C214.79 291.59 214.77 292.07 214.74 292.56C214.71 293.05 214.67 293.54 214.61 294.02C214.58 294.26 214.55 294.48 214.51 294.73C214.44 295.15 214.37 295.58 214.28 296.01C214.19 296.43 214.09 296.85 213.99 297.27C213.88 297.69 213.76 298.11 213.63 298.53C213.5 298.94 213.36 299.35 213.21 299.76C213.21 299.76 213.21 299.77 213.21 299.77C213.21 299.77 213.21 299.77 213.21 299.78C213.21 299.78 213.21 299.78 213.21 299.79C213.21 299.79 213.21 299.79 213.21 299.79C213.08 300.14 212.96 300.49 212.83 300.85L212.64 301.4C212.37 302.19 212.1 303 211.82 303.82C211.66 304.28 211.5 304.74 211.34 305.21C211.31 305.29 211.28 305.38 211.24 305.46L211.92 305.85L212.6 306.22C213.05 306.47 213.51 306.72 213.97 306.95L214.68 307.3L215.32 307.62C216.46 308.17 217.61 308.68 218.79 309.16C219.09 309.29 219.39 309.4 219.68 309.52L219.75 309.52C220.06 309.65 220.38 309.77 220.71 309.88C221.04 310 221.39 310.13 221.73 310.25L222.69 310.57C223.11 310.72 223.53 310.85 223.96 310.99C224.26 311.08 224.56 311.17 224.86 311.25L225.02 311.3C225.3 311.38 225.58 311.46 225.86 311.54L226.34 311.67C226.59 311.74 226.82 311.8 227.09 311.86L227.71 312.01L228.81 312.27L229.54 312.43C229.72 312.47 229.9 312.51 230.08 312.54L230.84 312.69L231.32 312.78L232.28 312.95L232.44 312.95L232.44 312.95C232.81 313.01 233.18 313.06 233.55 313.11C233.93 313.16 234.3 313.22 234.67 313.27C235.04 313.11 235.42 312.96 235.8 312.8C235.51 312.49 235.22 312.19 234.92 311.89C234.61 311.6 234.3 311.31 233.98 311.04C233.65 310.77 233.32 310.51 232.98 310.25C232.64 310 232.29 309.76 231.93 309.53L231.93 309.53Z" />
	<path id="Layer" class="shp1" d="M319.53 257.33C318.25 258.57 318.25 258.58 319.17 260.09C320.27 261.87 321.31 263.68 322.31 265.51C323.3 267.34 324.24 269.19 325.14 271.07C326.03 272.95 326.87 274.86 327.66 276.78C328.44 278.7 329.18 280.65 329.86 282.61C331.3 286.78 332.33 291.09 332.4 295.5C332.46 299.12 331.92 302.72 329.45 305.72C328.57 306.8 328.41 306.82 327.39 305.84C321.43 300.16 315.48 294.49 309.52 288.82C306.05 285.52 302.53 282.26 299.08 278.94C298.33 278.22 297.88 278.22 297.12 278.94C290.12 285.77 283.06 292.55 276.04 299.34C275.42 299.95 274.78 300.54 274.12 301.11C273.47 301.68 272.8 302.23 272.11 302.77C271.43 303.31 270.73 303.83 270.02 304.33C269.31 304.84 268.58 305.32 267.84 305.79C266.52 305.86 265.19 305.96 263.87 306.08C262.55 306.21 261.24 306.36 259.92 306.53C258.61 306.71 257.3 306.91 255.99 307.13C254.69 307.36 253.38 307.61 252.09 307.88C251.61 307.98 251.17 308.08 250.71 308.19C249.11 308.56 247.51 308.97 245.91 309.41C245.6 309.5 245.29 309.59 244.95 309.68C244.62 309.78 244.33 309.87 243.99 309.96L243.04 310.25C242.36 310.45 241.69 310.67 241.03 310.9L240.25 311.16C239.94 311.27 239.63 311.37 239.33 311.48L237.79 312.04C237.08 312.31 236.38 312.58 235.68 312.86C235.4 312.54 235.12 312.23 234.82 311.93C234.52 311.63 234.21 311.34 233.89 311.06C233.58 310.78 233.25 310.51 232.91 310.25C232.57 309.99 232.23 309.74 231.87 309.51C231.65 306.98 231.62 304.63 231.5 302.83L231.5 302.83C231.53 302.5 231.56 302.16 231.58 301.83C231.59 301.49 231.6 301.16 231.61 300.82C231.61 300.48 231.61 300.15 231.6 299.81C231.59 299.47 231.58 299.14 231.55 298.8C231.53 298.44 231.5 298.08 231.46 297.72L231.46 297.72C231.37 296.95 231.26 296.18 231.1 295.4C231.03 295.07 230.96 294.74 230.88 294.41C230.72 293.75 230.53 293.09 230.32 292.45C230.1 291.8 229.87 291.17 229.6 290.54C229.34 289.91 229.05 289.29 228.74 288.68C228.43 288.08 228.09 287.48 227.74 286.9C227.36 286.27 226.94 285.66 226.51 285.07C227.29 285.31 228.09 285.53 228.89 285.71C229.7 285.89 230.51 286.04 231.32 286.16C232.14 286.28 232.96 286.36 233.79 286.41C234.61 286.46 235.44 286.48 236.26 286.46C242.02 286.26 247.53 284.85 252.22 281.53C255.1 279.48 257.63 276.92 260.2 274.47C265.54 269.37 270.81 264.22 276.12 259.1C276.6 258.63 276.99 258.28 276.33 257.66C274.02 255.5 271.75 253.31 269.46 251.17C265.65 247.58 261.72 244.12 258.05 240.41C251.53 233.82 243.82 230.21 234.23 230.77C225.53 231.28 218.54 234.99 213.19 241.54C208.19 247.66 206.32 254.67 207.5 262.4C207.66 263.56 207.9 264.71 208.21 265.84C208.52 266.97 208.9 268.08 209.35 269.16C209.8 270.25 210.32 271.31 210.9 272.33C211.49 273.36 212.14 274.34 212.85 275.29C212.51 275.18 212.17 275.08 211.83 274.98C211.49 274.88 211.14 274.79 210.8 274.71C210.45 274.63 210.1 274.55 209.76 274.48C209.41 274.41 209.06 274.34 208.71 274.28C209.01 274.64 209.29 275.01 209.56 275.38C210.14 276.16 210.68 276.96 211.18 277.8C211.67 278.63 212.12 279.49 212.51 280.37C212.91 281.25 213.26 282.15 213.56 283.06C213.85 283.98 214.1 284.91 214.29 285.85C214.45 286.61 214.57 287.38 214.65 288.17L214.65 288.17C214.7 288.66 214.74 289.14 214.76 289.63C214.79 290.12 214.8 290.61 214.79 291.1C214.79 291.59 214.77 292.07 214.74 292.56C214.71 293.05 214.67 293.54 214.61 294.02C214.58 294.26 214.55 294.48 214.51 294.73C214.44 295.15 214.37 295.58 214.28 296.01C214.19 296.43 214.09 296.85 213.99 297.27C213.88 297.69 213.76 298.11 213.63 298.53C213.5 298.94 213.36 299.35 213.21 299.76C213.21 299.76 213.21 299.77 213.21 299.77C213.21 299.77 213.21 299.77 213.21 299.78C213.21 299.78 213.21 299.78 213.21 299.79C213.21 299.79 213.21 299.79 213.21 299.79C213.08 300.14 212.96 300.49 212.83 300.85L212.64 301.4C212.37 302.19 212.1 303 211.82 303.82C211.66 304.28 211.5 304.74 211.34 305.21C211.31 305.29 211.28 305.38 211.24 305.46C210.14 304.85 209.07 304.18 208.02 303.46C203.27 300.32 199.01 296.55 195.36 292.26C191.7 287.97 188.69 283.2 186.4 278.1C184.12 273 182.59 267.62 181.86 262.1C181.13 256.59 181.21 251.01 182.08 245.52C182.33 243.94 182.65 242.38 183.03 240.83C183.42 239.28 183.87 237.75 184.38 236.23C184.89 234.72 185.47 233.23 186.11 231.76C186.74 230.29 187.45 228.85 188.21 227.43C188.97 226.02 188.21 227.43 188.21 227.43C189.01 226.24 189.89 225.09 190.84 223.99C191.79 222.9 192.8 221.85 193.87 220.87C194.94 219.89 196.07 218.96 197.25 218.1C198.43 217.25 199.66 216.45 200.93 215.73C201.09 215.64 201.25 215.56 201.41 215.47C202.68 214.78 203.98 214.16 205.32 213.61C206.66 213.07 208.03 212.6 209.42 212.2C210.82 211.81 212.24 211.49 213.67 211.25C215.1 211.02 216.54 210.86 218 210.79C218.71 210.74 219.43 210.73 220.14 210.73C220.49 210.73 220.85 210.73 221.2 210.74C221.56 210.75 221.92 210.76 222.27 210.78C222.63 210.8 222.99 210.83 223.34 210.86C223.7 210.88 224.05 210.92 224.41 210.96C224.94 211.01 225.48 211.08 226.02 211.16C226.56 211.24 227.09 211.33 227.62 211.44C228.15 211.54 228.68 211.65 229.21 211.78C229.74 211.9 230.26 212.04 230.78 212.19C231.34 212.34 232.08 212.58 232.89 212.85C235.2 213.63 238.01 214.68 238.35 214.71L238.35 214.71C239.88 215.67 241.48 216.52 243.14 217.26C244.8 218 246.51 218.63 248.26 219.13C250.01 219.63 251.8 220 253.61 220.26C255.41 220.51 257.24 220.63 259.06 220.63C259.3 220.63 259.54 220.63 259.77 220.63C260.55 220.62 261.34 220.58 262.13 220.52C262.91 220.46 263.7 220.37 264.48 220.27C265.26 220.16 266.03 220.03 266.8 219.87C267.58 219.72 268.34 219.54 269.1 219.34C267.27 219.18 265.46 218.86 263.68 218.39C261.91 217.91 260.19 217.28 258.54 216.5C256.88 215.72 255.31 214.8 253.83 213.74C252.35 212.68 250.98 211.49 249.73 210.19L249.73 210.19C249.58 210.03 249.43 209.88 249.29 209.72L248.98 209.39C248.62 208.98 248.26 208.57 247.93 208.14C247.86 208.06 247.79 207.97 247.72 207.88L247.31 207.34L247.26 207.27C247.11 207.07 246.96 206.87 246.82 206.66C246.58 206.32 246.34 205.98 246.13 205.63C246.01 205.45 245.9 205.27 245.79 205.09C245.49 204.6 245.2 204.1 244.94 203.58C244.85 203.42 244.76 203.26 244.68 203.12C246.63 203.39 248.56 203.76 250.47 204.22C252.38 204.69 254.27 205.25 256.12 205.91C257.97 206.56 259.78 207.31 261.55 208.15C263.31 208.99 265.04 209.92 266.7 210.93C271.52 213.84 275.71 217.46 279.7 221.34C285.32 226.83 291 232.28 296.66 237.75C296.88 237.96 297.14 238.16 297.67 238.62C298.36 237.84 298.99 237.03 299.72 236.3C306.52 229.67 313.29 223.02 320.17 216.46C325.4 211.48 331.99 211.62 337.22 216.63C339.09 218.43 341 220.18 342.92 221.94C346.95 225.62 347.03 230.75 343.13 234.51C335.26 242.12 327.4 249.73 319.53 257.33Z" />
	<path id="Layer" fill-rule="evenodd" class="shp2" d="M231.93 309.53C232.29 309.76 232.64 310 232.98 310.25C233.32 310.51 233.65 310.77 233.98 311.04C234.3 311.31 234.61 311.6 234.92 311.89C235.22 312.19 235.51 312.49 235.8 312.8C235.42 312.96 235.04 313.11 234.67 313.27C234.3 313.22 233.93 313.16 233.55 313.11C233.18 313.06 232.81 313.01 232.44 312.95L232.38 312.95C232.24 312.22 232.16 311.47 232.05 310.73C232.1 311.43 232.12 312.18 232.21 312.94L231.32 312.78L230.84 312.69L230.08 312.54C229.9 312.51 229.72 312.47 229.54 312.43L228.81 312.27L227.71 312.01L227.09 311.86C226.82 311.8 226.59 311.74 226.34 311.67L225.86 311.54C225.58 311.46 225.3 311.38 225.02 311.3L224.86 311.25C224.56 311.17 224.26 311.08 223.96 310.99C223.53 310.85 223.11 310.72 222.69 310.57L221.73 310.25C221.39 310.13 221.04 310 220.71 309.88C220.38 309.77 220.06 309.65 219.75 309.52L219.68 309.52C219.39 309.4 219.09 309.29 218.79 309.16C217.61 308.68 216.46 308.17 215.32 307.62L214.68 307.3L213.97 306.95C213.51 306.72 213.05 306.47 212.6 306.22L211.92 305.85L211.24 305.46C211.28 305.38 211.31 305.29 211.34 305.21C211.5 304.74 211.66 304.28 211.82 303.82C212.1 303 212.37 302.19 212.64 301.4L212.83 300.85C212.96 300.49 213.08 300.14 213.21 299.79C213.21 299.79 213.21 299.79 213.21 299.79C213.21 299.78 213.21 299.78 213.21 299.78C213.21 299.77 213.21 299.77 213.21 299.77C213.21 299.77 213.21 299.76 213.21 299.76C213.36 299.35 213.5 298.94 213.63 298.53C213.76 298.11 213.88 297.69 213.99 297.27C214.09 296.85 214.19 296.43 214.28 296.01C214.37 295.58 214.44 295.15 214.51 294.73C214.55 294.48 214.58 294.26 214.61 294.02C214.67 293.54 214.71 293.05 214.74 292.56C214.77 292.07 214.79 291.59 214.79 291.1C214.8 290.61 214.79 290.12 214.76 289.63C214.74 289.14 214.7 288.66 214.65 288.17C214.57 287.38 214.45 286.61 214.29 285.85C214.1 284.91 213.86 283.99 213.57 283.08C213.28 282.16 212.93 281.27 212.54 280.39C212.15 279.51 211.71 278.66 211.22 277.83C210.74 277 210.2 276.19 209.63 275.42C209.35 275.05 209.08 274.68 208.77 274.32C209.13 274.38 209.47 274.44 209.82 274.52C210.17 274.59 210.52 274.66 210.86 274.75C211.21 274.83 211.55 274.92 211.9 275.02C212.24 275.12 212.58 275.22 212.91 275.33L213.39 275.49C214.38 275.82 215.34 276.21 216.27 276.65C217.21 277.09 218.11 277.58 218.99 278.12C219.87 278.66 220.71 279.25 221.52 279.89C222.33 280.52 223.1 281.2 223.82 281.92C224.07 282.15 224.31 282.4 224.54 282.65C224.77 282.9 225 283.15 225.23 283.4C225.45 283.66 225.67 283.92 225.88 284.19C226.09 284.45 226.3 284.72 226.5 284.99L226.57 285.1C227.01 285.69 227.42 286.3 227.8 286.93C228.16 287.51 228.5 288.1 228.81 288.71C229.12 289.32 229.41 289.94 229.67 290.56C229.93 291.19 230.17 291.83 230.38 292.48C230.6 293.12 230.78 293.77 230.94 294.43C231.03 294.76 231.1 295.1 231.17 295.43C231.32 296.21 231.44 296.97 231.53 297.75C231.56 298.11 231.6 298.47 231.62 298.83C231.64 299.16 231.66 299.5 231.67 299.84C231.68 300.17 231.68 300.51 231.68 300.85C231.67 301.18 231.66 301.52 231.64 301.86C231.62 302.19 231.6 302.53 231.57 302.86C231.68 304.66 231.71 307.01 231.94 309.53L231.93 309.53ZM232.28 312.95L232.21 312.94C232.22 312.95 232.22 312.97 232.22 312.99L232.38 312.99C232.38 312.98 232.38 312.96 232.38 312.95L232.28 312.95ZM232.05 310.73C232.03 310.48 232.01 310.23 231.97 309.99C231.97 310.24 232.02 310.48 232.05 310.73ZM193.08 320.7C193.2 320.93 193.33 321.16 193.45 321.38C192.61 321.29 191.77 321.23 190.93 321.19C190.09 321.15 189.24 321.13 188.4 321.15C187.56 321.16 186.72 321.2 185.88 321.27C185.04 321.34 184.2 321.43 183.37 321.55C182.3 321.71 181.24 321.91 180.2 322.15C179.15 322.4 178.11 322.68 177.08 323.01C176.06 323.34 175.05 323.7 174.06 324.11C173.06 324.52 172.09 324.97 171.14 325.45C172.19 324.73 173.29 324.07 174.43 323.48C175.57 322.89 176.75 322.37 177.95 321.93C179.16 321.48 180.4 321.11 181.65 320.81C182.91 320.52 184.18 320.3 185.47 320.16C185.81 320.17 186.16 320.17 186.5 320.16C186.84 320.16 187.19 320.15 187.53 320.13C187.88 320.12 188.22 320.1 188.56 320.07C188.91 320.04 189.25 320.01 189.59 319.97C190.54 319.85 191.49 319.7 192.42 319.51C192.53 319.71 192.65 319.9 192.76 320.1C192.87 320.28 192.98 320.47 193.08 320.67C193.07 320.67 193.07 320.67 193.07 320.67C193.07 320.68 193.07 320.68 193.07 320.68C193.07 320.68 193.07 320.69 193.07 320.69C193.07 320.69 193.07 320.7 193.08 320.7ZM254.59 343.92C253.66 344 252.75 344.06 251.79 344.1L251.55 344.1C252.19 343.66 252.83 343.23 253.47 342.8C253.81 343.14 254.14 343.48 254.49 343.81L254.59 343.92Z" />
	<path id="Layer" class="shp3" d="M198 337.81C197.96 338.09 197.93 338.37 197.88 338.64L197.85 338.86C197.81 339.12 197.77 339.38 197.72 339.64L197.53 340.65C197.47 340.96 197.41 341.27 197.34 341.58C197.17 342.35 196.99 343.11 196.81 343.87C196.63 344.63 196.43 345.38 196.23 346.13C195.89 347.44 195.53 348.73 195.2 349.99C195.11 350.3 195.04 350.59 194.96 350.89C194.8 351.49 194.65 352.08 194.51 352.65C194.33 353.41 194.12 354.16 193.89 354.91C193.67 355.65 193.42 356.39 193.15 357.12C192.88 357.86 192.59 358.58 192.28 359.3C191.96 360.02 191.63 360.72 191.28 361.42C189.36 359.96 187.53 358.42 185.74 356.82C181.35 352.9 177.33 348.59 173.73 343.97C170.14 339.34 166.99 334.41 164.31 329.23C161.64 324.05 159.46 318.65 157.8 313.09C156.13 307.54 154.99 301.85 154.39 296.09C154.07 292.9 153.91 289.67 153.91 286.39C153.91 283.66 154.03 280.93 154.26 278.21C154.5 275.49 154.86 272.78 155.34 270.09C155.81 267.4 156.41 264.73 157.12 262.09C157.84 259.44 158.67 256.83 159.61 254.26C158.38 258.6 157.81 263.09 157.91 267.59C158.01 272.09 158.78 276.55 160.2 280.84C161.62 285.12 163.67 289.19 166.28 292.91C168.9 296.63 172.06 299.97 175.66 302.82C176.12 303.1 176.58 303.38 177.03 303.67C177.48 303.96 177.93 304.25 178.37 304.56C178.81 304.86 179.24 305.17 179.67 305.49C180.1 305.81 180.52 306.13 180.94 306.46C181.46 306.87 181.97 307.29 182.48 307.73C182.65 307.87 182.82 308.02 182.96 308.19C183.1 308.36 183.37 308.55 183.57 308.74L183.65 308.81C183.81 308.96 183.97 309.11 184.13 309.27C184.19 309.32 184.24 309.38 184.3 309.43L184.32 309.46C184.46 309.58 184.6 309.71 184.73 309.85L184.88 309.99L185.07 310.18L185.64 310.77L185.79 310.92C186.03 311.17 186.27 311.42 186.5 311.68C186.74 311.94 186.98 312.21 187.23 312.49C187.27 312.52 187.3 312.57 187.34 312.61C187.49 312.77 187.63 312.95 187.77 313.12L187.94 313.31C188.07 313.47 188.2 313.62 188.32 313.78C188.39 313.86 188.46 313.95 188.53 314.03C188.59 314.11 188.75 314.3 188.86 314.45C188.96 314.59 189.15 314.82 189.29 315C189.51 315.29 189.73 315.58 189.93 315.87L189.93 315.87C189.93 315.87 189.99 315.94 190.01 315.98C190.2 316.23 190.38 316.48 190.55 316.74C190.72 317 190.96 317.34 191.16 317.65C191.36 317.95 191.55 318.24 191.73 318.54C191.92 318.84 192.11 319.14 192.28 319.44C192.29 319.45 192.29 319.45 192.29 319.45C192.3 319.46 192.3 319.46 192.3 319.46C192.3 319.47 192.31 319.47 192.31 319.48C192.31 319.48 192.31 319.48 192.31 319.49C192.43 319.68 192.54 319.88 192.65 320.07C192.76 320.27 192.87 320.45 192.97 320.64L192.97 320.64C192.97 320.65 192.97 320.65 192.97 320.65C192.97 320.65 192.97 320.66 192.97 320.66C192.97 320.66 192.97 320.66 192.97 320.67C192.97 320.67 192.97 320.67 192.97 320.68C193.09 320.91 193.22 321.14 193.34 321.38C193.55 321.75 193.74 322.14 193.93 322.52C194.02 322.69 194.1 322.87 194.18 323.04C194.27 323.22 194.34 323.36 194.41 323.51L194.6 323.91C194.68 324.08 194.75 324.26 194.83 324.43L195.06 324.97C195.12 325.11 195.18 325.26 195.24 325.4C195.4 325.78 195.55 326.16 195.69 326.54C195.79 326.79 195.89 327.06 195.98 327.32C196.07 327.58 196.16 327.83 196.25 328.09C196.29 328.22 196.34 328.36 196.38 328.5L196.58 329.11C196.66 329.38 196.75 329.66 196.82 329.92C196.87 330.08 196.91 330.24 196.96 330.39L197 330.51C197.05 330.7 197.1 330.9 197.15 331.1C197.23 331.41 197.31 331.71 197.38 332C197.38 332.01 197.38 332.01 197.38 332.02C197.38 332.02 197.38 332.03 197.38 332.04C197.38 332.04 197.38 332.05 197.38 332.05C197.38 332.06 197.38 332.07 197.38 332.07C197.43 332.32 197.49 332.53 197.55 332.81C197.55 332.81 197.55 332.81 197.55 332.83C197.66 333.24 197.76 333.64 197.84 334.06C197.92 334.47 197.97 334.88 198.01 335.3C198.05 335.72 198.07 336.14 198.07 336.56C198.07 336.97 198.04 337.39 198 337.81Z" />
	<path id="Layer" fill-rule="evenodd" class="shp4" d="M309.18 326.09C307.83 326.81 306.5 327.57 305.18 328.36C303.86 329.14 302.57 329.96 301.29 330.8C300.01 331.64 298.76 332.52 297.53 333.42C296.29 334.32 295.08 335.25 293.89 336.21C292.22 337.56 290.58 338.96 288.98 340.42L287.77 341.55C287.39 342.05 286.98 342.55 286.57 343.01C286.29 343.33 286 343.64 285.71 343.95C285.41 344.26 285.11 344.56 284.81 344.85C284.5 345.14 284.19 345.43 283.87 345.71C283.55 345.99 283.22 346.26 282.89 346.53C281.84 347.37 280.73 348.15 279.58 348.85C278.42 349.55 277.21 350.17 275.97 350.71C274.72 351.25 273.44 351.71 272.13 352.08C270.82 352.45 269.49 352.73 268.14 352.93C266.02 356.35 264.3 359.66 262.86 362.13C262.66 362.63 262.46 363.12 262.24 363.61C262.03 364.1 261.81 364.58 261.57 365.06C261.34 365.54 261.09 366.01 260.84 366.48C260.59 366.96 260.32 367.42 260.05 367.88C259.77 368.38 259.46 368.88 259.15 369.34C258.48 370.38 257.76 371.38 257.01 372.36C256.67 372.79 256.33 373.21 255.97 373.62C255.27 374.45 254.54 375.25 253.78 376.02C253.02 376.8 252.23 377.54 251.41 378.25C250.59 378.97 249.74 379.65 248.87 380.31C247.99 380.96 247.09 381.58 246.17 382.16C246.15 382.17 246.14 382.18 246.12 382.19C246.11 382.2 246.09 382.21 246.08 382.22C246.06 382.23 246.05 382.24 246.03 382.25C246.01 382.26 246 382.27 245.98 382.28C244.99 382.9 243.99 383.48 242.94 384.03C242.46 384.28 241.98 384.52 241.49 384.76C241 384.99 240.5 385.21 240 385.43C239.5 385.64 239 385.85 238.49 386.04C237.98 386.24 237.47 386.43 236.96 386.6C235.41 387.13 233.84 387.58 232.25 387.93C230.66 388.29 229.04 388.56 227.42 388.73C225.79 388.91 224.16 389 222.52 389C220.89 389 219.25 388.91 217.63 388.73C217 388.66 216.38 388.58 215.76 388.48C215.14 388.39 214.52 388.28 213.91 388.16C213.29 388.04 212.68 387.91 212.07 387.77C211.46 387.62 210.86 387.46 210.26 387.29C210.94 386.98 211.6 386.65 212.25 386.31C213.29 385.77 214.31 385.19 215.3 384.56C216.29 383.94 217.26 383.28 218.19 382.58C219.13 381.88 220.03 381.15 220.91 380.38C221.78 379.61 222.62 378.8 223.43 377.97L223.47 377.92C223.72 377.66 223.97 377.4 224.21 377.13C224.46 376.86 224.7 376.59 224.93 376.32C225.17 376.04 225.4 375.77 225.63 375.49C225.86 375.21 226.09 374.92 226.31 374.64C226.5 374.39 226.69 374.15 226.88 373.9C227.06 373.65 227.24 373.41 227.42 373.15C227.6 372.9 227.78 372.65 227.95 372.39C228.12 372.14 228.29 371.88 228.45 371.62C228.88 370.97 229.28 370.3 229.66 369.63C230.05 368.95 230.41 368.27 230.76 367.58C231.1 366.88 231.42 366.18 231.73 365.47C232.03 364.76 232.31 364.04 232.58 363.31C232.71 362.95 232.83 362.6 232.95 362.24C233.16 361.59 233.36 360.93 233.54 360.27C233.72 359.61 233.88 358.94 234.03 358.27C234.18 357.61 234.31 356.93 234.42 356.26C234.54 355.58 234.64 354.9 234.72 354.22C234.72 354.22 234.71 354.21 234.71 354.21C234.71 354.2 234.71 354.2 234.71 354.2C234.71 354.19 234.71 354.19 234.71 354.18C234.71 354.18 234.72 354.17 234.72 354.17L235.3 354.01L235.87 353.85L236.43 353.68C236.8 353.56 237.17 353.43 237.54 353.3C237.81 353.21 238.06 353.1 238.29 353.01C238.51 352.93 238.73 352.84 238.94 352.75L239.58 352.48L239.63 352.45L239.86 352.34C240.05 352.26 240.24 352.17 240.43 352.08L240.52 352.03L240.81 351.89L240.92 351.83C241.1 351.74 241.29 351.65 241.47 351.55L241.99 351.26C242.17 351.17 242.34 351.07 242.51 350.97C242.8 350.8 243.08 350.63 243.36 350.45C243.85 350.14 244.34 349.82 244.82 349.48C245.3 349.14 245.76 348.78 246.22 348.42C246.68 348.05 247.12 347.67 247.55 347.28C247.98 346.88 248.4 346.48 248.81 346.06C249.26 345.73 249.7 345.42 250.16 345.08C250.61 344.74 251.09 344.41 251.57 344.08C252.2 343.64 252.84 343.2 253.49 342.78C254.13 342.35 254.78 341.93 255.43 341.52C255.76 341.32 256.09 341.11 256.42 340.91L257.41 340.31L258.15 339.87L258.25 339.82C258.51 339.67 258.74 339.53 258.99 339.39L259.84 338.92L260.62 338.5L261.35 338.1L261.42 338.06L261.52 338.01C261.82 337.83 262.12 337.69 262.48 337.5C262.84 337.31 263.2 337.12 263.57 336.93L264.67 336.39L265.77 335.82L266.89 335.3L268 334.8L269.18 334.28C269.68 334.06 270.19 333.86 270.67 333.65C271.01 333.53 271.25 333.44 271.63 333.28C272.01 333.11 272.4 332.96 272.78 332.81L272.89 332.77C273.29 332.6 273.67 332.48 274.08 332.31C274.49 332.14 274.9 331.99 275.31 331.84L276.54 331.41C277.45 331.1 278.38 330.81 279.32 330.51L280.32 330.21L281.76 329.8L281.9 329.76L282.56 329.58L282.77 329.53C282.85 329.5 282.93 329.46 283.02 329.46C283.38 329.36 283.74 329.27 284.1 329.18C284.1 329.17 284.11 329.17 284.12 329.17C284.13 329.17 284.14 329.16 284.14 329.16C284.15 329.16 284.16 329.16 284.17 329.16C284.18 329.15 284.19 329.15 284.2 329.15C284.61 329.04 285.09 328.93 285.46 328.84C285.82 328.75 286.19 328.66 286.56 328.58L286.91 328.5L288.06 328.25C289.08 328.02 290.09 327.82 291.14 327.64C292.19 327.45 293.24 327.28 294.3 327.12L295.18 326.99L295.39 326.99L296.26 326.87C296.6 326.83 296.95 326.79 297.29 326.75C297.64 326.7 297.98 326.67 298.34 326.63L299.32 326.53L299.38 326.53C300.04 326.46 300.71 326.4 301.38 326.35L302.34 326.28L303.46 326.21C303.74 326.19 303.96 326.16 304.22 326.16C304.73 326.14 305.24 326.11 305.76 326.09L307.48 326.09C308.05 326.09 308.63 326.08 309.18 326.09ZM268.56 352.29C268.56 352.29 268.56 352.29 268.57 352.28C268.56 352.29 268.55 352.29 268.55 352.29L268.56 352.29ZM268.57 352.28C270.83 351.03 272.3 348.3 273.63 345.4C273.16 345.94 272.7 346.49 272.26 347.05C271.81 347.61 271.38 348.18 270.95 348.75C270.53 349.33 270.12 349.91 269.72 350.5C269.33 351.09 268.94 351.68 268.57 352.28ZM241.66 189.66L241.66 189.66C141 131 141 131 141 131L141 131L141 131L141 131L241.66 189.66Z" />
	<path id="Layer" fill-rule="evenodd" class="shp5" d="M220.94 364.66C220.98 364.63 221.01 364.59 221.04 364.56C221.08 364.52 221.11 364.49 221.14 364.45C221.18 364.42 221.21 364.38 221.24 364.35L220.97 364.81L220.84 364.76C220.87 364.72 220.91 364.69 220.94 364.66ZM232.42 313.18C232.79 313.24 233.16 313.3 233.53 313.35C233.15 313.31 232.79 313.24 232.42 313.18Z" />
	<path id="Layer" class="shp6" d="M340.84 331.07C338.32 330.27 335.77 329.56 333.19 328.95C330.61 328.34 328.01 327.84 325.39 327.43C322.77 327.02 320.13 326.72 317.48 326.51C314.84 326.31 312.18 326.21 309.53 326.21L309.21 326.21C308.64 326.21 308.06 326.21 307.48 326.21L306.81 326.21L306.78 326.21L306.42 326.21L305.76 326.21C305.24 326.23 304.72 326.25 304.22 326.28C303.96 326.28 303.74 326.31 303.46 326.32L302.34 326.39L301.38 326.47C300.71 326.52 300.04 326.58 299.38 326.64L299.32 326.64L298.34 326.74C297.99 326.78 297.64 326.82 297.29 326.86C296.95 326.91 296.6 326.95 296.26 326.99L295.4 327.1L295.34 327.1L295.18 327.1L294.3 327.23C293.24 327.39 292.19 327.57 291.14 327.75C290.09 327.94 289.09 328.14 288.07 328.36L286.91 328.61L286.56 328.69C286.19 328.77 285.83 328.86 285.46 328.95C285.1 329.04 284.62 329.15 284.2 329.26C284.19 329.26 284.18 329.26 284.17 329.27C284.17 329.27 284.16 329.27 284.15 329.27C284.14 329.27 284.13 329.28 284.12 329.28C284.12 329.28 284.11 329.28 284.1 329.29C283.74 329.38 283.38 329.47 283.03 329.57C282.94 329.57 282.86 329.61 282.78 329.63L282.56 329.69L281.9 329.87L281.77 329.91L280.33 330.32L279.32 330.62C278.39 330.91 277.46 331.21 276.55 331.52L275.32 331.95C274.9 332.09 274.49 332.24 274.08 332.41C273.68 332.58 273.29 332.7 272.9 332.87L272.79 332.91C272.41 333.06 272.02 333.21 271.64 333.38C271.25 333.54 271.02 333.63 270.68 333.75C270.2 333.96 269.69 334.16 269.19 334.38L268.01 334.89L266.9 335.39L265.78 335.92L264.69 336.5L263.6 337.05C263.23 337.24 262.86 337.42 262.5 337.61C262.14 337.8 261.85 337.95 261.54 338.12L261.44 338.17L261.38 338.21L260.65 338.61L259.87 339.03L259.02 339.5C258.77 339.64 258.54 339.78 258.28 339.93L258.18 339.98L257.44 340.42L256.44 341.02C256.12 341.22 255.79 341.42 255.46 341.63C254.81 342.04 254.16 342.46 253.51 342.88C252.87 343.3 252.23 343.74 251.59 344.18L251.59 344.18C251.11 344.51 250.64 344.84 250.18 345.18C249.73 345.52 249.29 345.83 248.84 346.16C248.43 346.57 248.01 346.98 247.58 347.37C247.15 347.76 246.71 348.14 246.25 348.51C245.79 348.87 245.33 349.22 244.85 349.56C244.37 349.9 243.89 350.23 243.39 350.54C243.11 350.71 242.83 350.89 242.54 351.05C242.37 351.15 242.2 351.25 242.02 351.34L241.5 351.63C241.32 351.73 241.13 351.82 240.96 351.91L240.85 351.97L240.55 352.12L240.46 352.16C240.27 352.25 240.08 352.34 239.89 352.42L239.67 352.53L239.61 352.56L238.98 352.83C238.76 352.92 238.54 353.01 238.32 353.09C238.1 353.18 237.84 353.29 237.57 353.38C237.21 353.51 236.84 353.63 236.46 353.75L235.9 353.93L235.33 354.09L234.75 354.24L234.16 354.39C233.9 354.45 233.64 354.51 233.38 354.56L233.22 354.6C233.2 354.6 233.19 354.6 233.17 354.6C233.16 354.61 233.14 354.61 233.12 354.61C233.11 354.62 233.09 354.62 233.08 354.63C233.06 354.63 233.04 354.63 233.03 354.64L232.93 354.64L232.65 354.69C232.52 354.72 232.39 354.74 232.26 354.76C231.98 354.8 231.7 354.85 231.42 354.89L230.83 354.97L230.75 354.97L230.44 355C230.33 355 230.23 355.03 230.12 355.04L229.7 355.08C229.44 355.1 229.16 355.12 228.89 355.13L228.75 355.13C228.49 355.13 228.23 355.16 227.96 355.17C225.44 358.32 223.33 361.4 221.59 363.69L221.59 363.69C221.49 363.88 221.38 364.08 221.27 364.27L221.27 364.27L221.27 364.27C221.24 364.31 221.2 364.35 221.17 364.38C221.14 364.42 221.11 364.45 221.07 364.48C221.04 364.52 221.01 364.55 220.97 364.58C220.94 364.62 220.9 364.65 220.86 364.68L221 364.74L220.95 364.82C220.87 364.96 220.79 365.09 220.71 365.22C220.63 365.35 220.6 365.4 220.55 365.49L220.38 365.76L220.17 366.1L220.14 366.13C219.62 366.97 219.06 367.78 218.47 368.57L218.11 369.03C217.76 369.49 217.4 369.95 217.04 370.38L217.04 370.38C216.25 371.34 215.41 372.23 214.54 373.13L213.96 373.69L213.75 373.9C213.62 374.02 213.5 374.13 213.38 374.24L213.38 374.24L213.29 374.32C212.27 375.27 211.21 376.18 210.1 377.03C208.99 377.88 207.84 378.68 206.65 379.43C205.46 380.17 204.23 380.86 202.97 381.48C201.71 382.11 200.42 382.68 199.1 383.18C198.59 383.37 198.08 383.56 197.56 383.73C197.05 383.91 196.53 384.07 196 384.22C195.48 384.38 194.96 384.52 194.43 384.66C193.9 384.79 193.37 384.92 192.83 385.03C191.24 385.38 189.62 385.65 187.99 385.82C186.36 385.99 184.73 386.08 183.09 386.07C181.45 386.07 179.81 385.97 178.19 385.78C176.56 385.6 174.95 385.32 173.35 384.96C172.74 384.82 172.13 384.67 171.53 384.5C170.93 384.34 170.33 384.16 169.73 383.97C169.14 383.79 168.55 383.58 167.96 383.37C167.37 383.16 166.79 382.93 166.21 382.69C166.92 382.47 167.62 382.23 168.31 381.95C169.75 381.4 171.17 380.78 172.55 380.08C173.93 379.38 175.27 378.62 176.56 377.78C177.85 376.94 179.1 376.04 180.29 375.07C181.48 374.11 182.62 373.08 183.69 371.99C183.91 371.78 184.13 371.56 184.34 371.33C184.56 371.11 184.77 370.88 184.98 370.65C185.19 370.42 185.39 370.19 185.59 369.96C185.8 369.72 186 369.49 186.19 369.25L186.19 369.25C186.69 368.65 187.18 368.04 187.64 367.41C188.11 366.79 188.55 366.15 188.98 365.5C189.41 364.85 189.82 364.2 190.21 363.53C190.6 362.86 190.98 362.17 191.33 361.48C191.68 360.79 192.01 360.08 192.32 359.36C192.63 358.64 192.93 357.92 193.19 357.19C193.46 356.46 193.71 355.72 193.94 354.97C194.17 354.23 194.37 353.47 194.56 352.72C194.7 352.14 194.85 351.56 195.01 350.97C195.08 350.66 195.16 350.37 195.24 350.07C195.58 348.81 195.93 347.52 196.28 346.21C196.47 345.46 196.67 344.71 196.85 343.95C197.04 343.19 197.22 342.43 197.39 341.67C197.45 341.36 197.51 341.06 197.58 340.75L197.76 339.74C197.81 339.48 197.86 339.22 197.89 338.96L197.93 338.74C197.98 338.47 198.01 338.19 198.05 337.91C198.1 337.5 198.13 337.09 198.14 336.67C198.15 336.26 198.14 335.85 198.12 335.44C198.09 335.02 198.04 334.61 197.98 334.2C197.91 333.79 197.83 333.39 197.72 332.99C197.62 332.59 197.72 332.99 197.72 332.97C197.67 332.72 197.62 332.48 197.55 332.23C197.55 332.22 197.55 332.22 197.55 332.21C197.56 332.21 197.56 332.2 197.56 332.2C197.56 332.19 197.56 332.18 197.55 332.18C197.55 332.17 197.55 332.17 197.55 332.16C197.48 331.85 197.4 331.55 197.32 331.26C197.28 331.06 197.22 330.87 197.17 330.67L197.14 330.55C197.09 330.39 197.05 330.24 197 330.09C196.92 329.82 196.84 329.55 196.76 329.28L196.56 328.66C196.51 328.52 196.47 328.39 196.42 328.26C196.34 328 196.24 327.74 196.15 327.49C196.06 327.23 195.96 326.97 195.87 326.71C195.72 326.33 195.57 325.95 195.42 325.58C195.36 325.43 195.3 325.29 195.24 325.14L195.01 324.61C194.93 324.44 194.85 324.26 194.77 324.08L194.59 323.69C194.51 323.52 194.44 323.37 194.36 323.22C194.28 323.08 194.19 322.87 194.11 322.7C193.92 322.32 193.72 321.93 193.52 321.56C193.4 321.32 193.27 321.1 193.15 320.86C193.15 320.86 193.15 320.85 193.14 320.85C193.14 320.85 193.14 320.85 193.14 320.84C193.14 320.84 193.14 320.84 193.14 320.83C193.15 320.83 193.15 320.83 193.15 320.83L193.15 320.83C193.05 320.64 192.94 320.45 192.83 320.26C192.72 320.06 192.6 319.87 192.49 319.68C192.49 319.67 192.49 319.67 192.48 319.66C192.48 319.66 192.48 319.65 192.48 319.65C192.47 319.65 192.47 319.64 192.47 319.64C192.47 319.64 192.46 319.63 192.46 319.63C192.28 319.33 192.1 319.03 191.91 318.73C191.72 318.43 191.53 318.13 191.34 317.84C191.14 317.55 190.93 317.23 190.73 316.94C190.52 316.64 190.37 316.43 190.19 316.17C190.16 316.14 190.14 316.09 190.11 316.06C190.08 316.03 190.11 316.06 190.11 316.06C189.9 315.78 189.69 315.48 189.47 315.2C189.33 315.02 189.19 314.83 189.04 314.65C188.89 314.46 188.78 314.32 188.7 314.23C188.64 314.15 188.57 314.06 188.5 313.98C188.37 313.81 188.24 313.66 188.11 313.51L187.95 313.32C187.81 313.15 187.66 312.98 187.52 312.81C187.48 312.77 187.44 312.73 187.41 312.69C187.17 312.42 186.93 312.14 186.68 311.88C186.43 311.62 186.2 311.37 185.97 311.12L185.82 310.97L185.19 310.34L185 310.15L184.85 310.01C184.72 309.87 184.58 309.74 184.45 309.61L184.42 309.59C184.36 309.53 184.31 309.48 184.25 309.43C184.09 309.27 183.92 309.12 183.77 308.97L183.69 308.9C183.49 308.71 183.28 308.53 183.08 308.35C182.87 308.17 182.74 308.05 182.6 307.89C182.12 307.46 181.58 307.04 181.06 306.63C180.65 306.3 180.22 305.97 179.79 305.66C179.36 305.34 178.93 305.03 178.49 304.73C178.05 304.42 177.6 304.13 177.15 303.84C176.7 303.55 176.25 303.27 175.79 302.99C172.18 300.15 169.02 296.82 166.41 293.11C163.79 289.4 161.74 285.34 160.32 281.06C158.9 276.78 158.13 272.33 158.03 267.84C157.93 263.35 158.5 258.87 159.72 254.54C160.11 253.49 160.51 252.45 160.93 251.42C161.36 250.38 161.8 249.35 162.26 248.33C162.72 247.31 163.2 246.3 163.7 245.3C164.2 244.3 164.72 243.3 165.25 242.31C167.29 238.55 169.58 234.93 172.12 231.46C174.65 227.99 177.42 224.69 180.41 221.57C183.4 218.45 186.59 215.53 189.98 212.82C193.37 210.11 196.93 207.62 200.66 205.37C201.1 205.16 201.52 204.95 201.95 204.73C202.37 204.51 202.79 204.28 203.21 204.05C203.63 203.81 204.04 203.57 204.44 203.32C204.85 203.07 205.25 202.81 205.65 202.54C206.77 201.78 207.86 200.97 208.89 200.1C209.93 199.23 210.92 198.31 211.85 197.34C212.78 196.37 213.66 195.35 214.48 194.28C215.3 193.22 216.06 192.12 216.76 190.98C217.32 190.05 217.85 189.13 218.33 188.14L218.33 188.14C219.46 185.83 221.15 180.85 221.23 180.82C221.51 177.92 222.15 175.06 223.13 172.31C224.11 169.55 225.42 166.92 227.05 164.46C228.67 162.01 230.59 159.75 232.77 157.73C234.95 155.71 237.36 153.95 239.97 152.48C240.51 152.18 241.06 151.89 241.61 151.61C242.17 151.33 242.73 151.07 243.3 150.82C243.87 150.57 244.44 150.33 245.02 150.1C245.6 149.88 246.19 149.67 246.78 149.48C244.13 151.5 241.86 153.93 240.06 156.68C238.25 159.43 236.93 162.45 236.17 165.62C235.4 168.79 235.19 172.06 235.55 175.3C235.9 178.54 236.82 181.69 238.27 184.63L238.27 184.63C238.52 184.88 238.75 185.14 238.99 185.41C239.1 185.54 239.21 185.67 239.32 185.8C239.43 185.93 239.53 186.07 239.64 186.2C239.74 186.34 239.84 186.48 239.94 186.62C240.04 186.76 240.13 186.9 240.23 187.04C240.36 187.24 240.48 187.44 240.6 187.64C240.73 187.84 240.84 188.05 240.95 188.26C241.06 188.47 241.17 188.68 241.27 188.89C241.37 189.1 241.47 189.32 241.56 189.54C241.63 189.71 241.7 189.88 241.76 190.06L241.76 190.06L241.76 190.06C241.92 190.47 242.05 190.89 242.17 191.31C242.24 191.58 242.31 191.84 242.36 192.1C242.42 192.37 242.47 192.64 242.51 192.9C242.55 193.17 242.59 193.44 242.62 193.71C242.65 193.98 242.67 194.25 242.68 194.52C242.68 194.76 242.68 195.01 242.68 195.25C242.68 195.5 242.68 195.62 242.68 195.79C242.67 195.92 242.67 196.06 242.66 196.19C242.65 196.33 242.64 196.46 242.63 196.6C242.62 196.73 242.6 196.87 242.58 197C242.57 197.13 242.55 197.27 242.53 197.4L242.53 197.4C242.59 197.65 242.65 197.89 242.72 198.13L242.77 198.33C242.83 198.53 242.89 198.73 242.95 198.93C243.04 199.24 243.14 199.55 243.25 199.85C243.3 200 243.35 200.15 243.41 200.32C243.46 200.48 243.48 200.51 243.52 200.61C243.69 201.07 243.87 201.54 244.07 202C244.18 202.24 244.28 202.49 244.4 202.73C244.52 202.97 244.63 203.19 244.75 203.44C244.83 203.6 244.92 203.76 245 203.91C245.27 204.42 245.56 204.92 245.86 205.41C245.97 205.59 246.08 205.77 246.19 205.95C246.41 206.3 246.67 206.64 246.89 206.98C247.03 207.19 247.18 207.39 247.33 207.59L247.37 207.65L247.79 208.2C247.86 208.29 247.93 208.37 248 208.45C248.33 208.88 248.69 209.29 249.05 209.7L249.36 210.03C249.5 210.19 249.65 210.35 249.8 210.5L249.8 210.5C251.04 211.8 252.41 212.99 253.88 214.06C255.35 215.12 256.92 216.05 258.57 216.84C260.22 217.62 261.94 218.26 263.71 218.74C265.48 219.23 267.29 219.55 269.13 219.71C268.37 219.91 267.6 220.09 266.83 220.24C266.06 220.4 265.28 220.53 264.5 220.64C263.72 220.74 262.94 220.83 262.16 220.89C261.37 220.95 260.58 220.98 259.8 220.99C259.56 220.99 259.32 220.99 259.1 220.99C257.27 221 255.45 220.87 253.64 220.62C251.83 220.37 250.05 219.99 248.29 219.49C246.54 219 244.83 218.37 243.17 217.64C241.52 216.9 239.92 216.05 238.39 215.09L238.39 215.09C238.05 215.04 235.24 213.99 232.93 213.24C232.12 212.96 231.38 212.72 230.82 212.57C230.3 212.42 229.78 212.29 229.25 212.16C228.72 212.04 228.19 211.92 227.66 211.82C227.13 211.72 226.6 211.63 226.06 211.55C225.52 211.47 224.99 211.4 224.45 211.34C224.09 211.31 223.74 211.27 223.38 211.24C223.03 211.21 222.67 211.19 222.32 211.17C221.96 211.15 221.6 211.14 221.25 211.13C220.89 211.12 220.53 211.11 220.18 211.11C219.46 211.11 218.74 211.11 218.04 211.17C216.59 211.25 215.14 211.4 213.71 211.64C212.28 211.88 210.86 212.19 209.47 212.59C208.08 212.98 206.71 213.45 205.37 213.99C204.03 214.54 202.73 215.16 201.46 215.85C201.3 215.93 201.15 216.02 200.98 216.11C199.71 216.83 198.48 217.62 197.3 218.48C196.12 219.33 194.99 220.26 193.92 221.24C192.85 222.22 191.84 223.26 190.89 224.36C189.95 225.45 189.07 226.6 188.26 227.79C187.45 228.99 188.26 227.79 188.26 227.79C187.5 229.2 186.8 230.64 186.16 232.11C185.52 233.57 184.94 235.06 184.43 236.57C183.92 238.08 183.47 239.61 183.09 241.16C182.7 242.7 182.38 244.26 182.13 245.84C182.01 246.59 181.91 247.35 181.81 248.11C181.72 248.87 181.65 249.63 181.59 250.39C181.53 251.15 181.48 251.92 181.45 252.68C181.42 253.44 181.4 254.21 181.4 254.97C181.41 259.75 182.01 264.51 183.2 269.15C184.39 273.79 186.16 278.27 188.48 282.49C190.79 286.72 193.62 290.66 196.92 294.23C200.21 297.79 203.95 300.96 208.03 303.66C209.09 304.36 210.17 305.03 211.26 305.66C211.49 305.79 211.71 305.92 211.94 306.04C212.17 306.17 212.39 306.29 212.62 306.42C213.07 306.66 213.53 306.91 213.99 307.14L214.69 307.49L215.33 307.81C216.47 308.36 217.63 308.87 218.81 309.35C219.1 309.47 219.4 309.59 219.7 309.71L219.76 309.71C220.07 309.83 220.39 309.95 220.72 310.07C221.05 310.18 221.4 310.32 221.74 310.43L222.7 310.76C223.12 310.9 223.55 311.03 223.97 311.17C224.27 311.26 224.57 311.35 224.87 311.44L225.04 311.48C225.32 311.57 225.59 311.64 225.88 311.72L226.36 311.85C226.61 311.92 226.84 311.98 227.1 312.04L227.72 312.19L228.83 312.45L229.55 312.61C229.73 312.65 229.91 312.69 230.09 312.72L230.85 312.87L231.33 312.96L232.29 313.12L232.45 313.12L232.45 313.12C232.82 313.18 233.19 313.24 233.57 313.29C233.94 313.34 234.31 313.4 234.68 313.44C235.05 313.29 235.43 313.14 235.8 312.98C236.51 312.7 237.21 312.43 237.92 312.16L239.45 311.61C239.75 311.5 240.06 311.39 240.37 311.29L241.15 311.02C241.81 310.8 242.49 310.56 243.16 310.38L244.12 310.09C244.43 310 244.74 309.9 245.08 309.81C245.41 309.72 245.71 309.63 246.04 309.54C247.62 309.1 249.22 308.7 250.83 308.32C251.31 308.22 251.75 308.11 252.21 308.02C253.5 307.74 254.8 307.49 256.11 307.27C257.41 307.04 258.72 306.84 260.04 306.67C261.35 306.49 262.67 306.34 263.99 306.22C265.31 306.1 266.63 306 267.96 305.93L268.25 305.93C270.07 305.83 271.9 305.78 273.74 305.78L273.83 305.78C274.87 305.78 275.9 305.78 276.93 305.83C277.86 305.86 278.79 305.9 279.71 305.95C283.32 306.16 286.91 306.55 290.47 307.13C294.04 307.72 297.56 308.49 301.04 309.44C304.51 310.4 307.93 311.54 311.27 312.86C314.62 314.17 317.89 315.67 321.06 317.33C322.36 318.01 323.64 318.71 324.9 319.45C326.32 320.29 327.72 321.16 329.1 322.06C330.48 322.97 331.84 323.91 333.17 324.88C334.5 325.85 335.81 326.85 337.08 327.88C338.36 328.92 339.62 329.98 340.84 331.07L340.84 331.07Z" />
	<path id="Layer" class="shp7" d="M341.15 331.35C340.7 332.18 340.23 333 339.76 333.81C339.28 334.62 338.79 335.43 338.29 336.22C337.78 337.02 337.27 337.81 336.74 338.6C336.22 339.38 335.68 340.16 335.13 340.93C333.48 343.22 331.74 345.45 329.9 347.61C327.95 349.88 325.89 352.07 323.74 354.16C321.58 356.25 319.33 358.25 316.98 360.14C314.63 362.04 312.2 363.82 309.68 365.5C307.17 367.18 304.57 368.74 301.9 370.19L301.87 370.19C300.13 371.11 298.35 372.04 296.55 372.87C294.5 373.83 292.42 374.72 290.31 375.54L290.31 375.54L290.28 375.54C287.45 376.63 284.57 377.6 281.66 378.43C278.74 379.27 275.78 379.97 272.79 380.55C269.81 381.12 266.8 381.56 263.77 381.87C260.74 382.17 257.7 382.34 254.65 382.38L253.32 382.38C250.93 382.38 248.57 382.29 246.23 382.13C243.22 381.93 240.25 381.6 237.33 381.14C236.15 380.96 234.98 380.76 233.82 380.53C232.65 380.31 231.49 380.06 230.33 379.8C229.18 379.54 228.02 379.25 226.88 378.95C225.73 378.64 224.59 378.32 223.46 377.98C222.84 377.79 222.22 377.6 221.61 377.4L221.37 377.31L220.93 377.17C220.18 376.93 219.44 376.67 218.7 376.4C217.38 375.94 216.06 375.42 214.76 374.9L213.35 374.31L213.35 374.31C213.48 374.2 213.6 374.08 213.72 373.96L213.94 373.76L214.51 373.19C215.39 372.31 216.22 371.4 217.01 370.45L217.01 370.45C217.38 369.98 217.74 369.56 218.08 369.09L218.45 368.63C219.03 367.84 219.59 367.03 220.12 366.2L220.15 366.16L220.36 365.82L220.52 365.56C220.58 365.47 220.63 365.38 220.69 365.29C220.74 365.19 220.85 365.02 220.92 364.89L220.97 364.8L221.24 364.34L221.24 364.34L221.24 364.34C221.35 364.14 221.46 363.95 221.56 363.75L221.56 363.75C223.31 361.47 225.4 358.39 227.94 355.23C228.2 355.23 228.47 355.23 228.73 355.2L228.86 355.2C229.14 355.2 229.41 355.17 229.68 355.14L230.1 355.1C230.2 355.1 230.31 355.08 230.41 355.07L230.75 355.01L230.83 355.01L231.42 354.93C231.7 354.89 231.99 354.85 232.27 354.8C232.4 354.8 232.52 354.75 232.66 354.73L232.94 354.68L233.03 354.68C233.05 354.67 233.06 354.67 233.08 354.66C233.1 354.66 233.11 354.65 233.13 354.65C233.14 354.65 233.16 354.64 233.18 354.64C233.19 354.64 233.21 354.64 233.22 354.63L233.39 354.6C233.65 354.55 233.91 354.49 234.16 354.43L234.75 354.28L235.33 354.12L235.91 353.96L236.47 353.79C236.84 353.67 237.21 353.55 237.58 353.41C237.82 353.32 238.06 353.23 238.32 353.13C238.59 353.03 238.76 352.96 238.98 352.87L239.61 352.59L239.67 352.57L239.9 352.46C240.08 352.38 240.28 352.29 240.46 352.2L240.55 352.15L240.85 352.01L240.96 351.95C241.14 351.86 241.33 351.77 241.5 351.67L242.03 351.38C242.2 351.29 242.38 351.19 242.54 351.09C242.83 350.92 243.11 350.75 243.39 350.58C243.89 350.27 244.38 349.94 244.86 349.6C245.33 349.26 245.8 348.91 246.26 348.54C246.71 348.18 247.15 347.8 247.59 347.41C248.02 347.02 248.44 346.61 248.85 346.2C249.29 345.86 249.74 345.54 250.19 345.22C250.64 344.89 251.12 344.55 251.6 344.22L251.6 344.22C252.24 343.78 252.88 343.34 253.52 342.92C254.16 342.5 254.81 342.07 255.47 341.67C255.79 341.46 256.12 341.26 256.45 341.06L257.44 340.45L258.18 340.02L258.28 339.96C258.53 339.82 258.76 339.67 259.02 339.53L259.87 339.07L260.65 338.65L261.38 338.25L261.45 338.21L261.55 338.16C261.87 337.98 262.19 337.82 262.51 337.65C262.82 337.48 263.23 337.27 263.6 337.09L264.7 336.54L265.81 336.01L266.92 335.49L268.03 334.99L269.22 334.47C269.7 334.26 270.2 334.05 270.7 333.84C271.02 333.72 271.32 333.59 271.66 333.47C272 333.35 272.43 333.16 272.81 333.01L272.92 332.97C273.32 332.81 273.72 332.66 274.11 332.5C274.5 332.34 274.93 332.2 275.34 332.04C275.75 331.88 276.16 331.75 276.57 331.61C277.49 331.3 278.41 331 279.35 330.71L280.35 330.41L281.79 330L281.93 329.96L282.59 329.78L282.8 329.73C282.88 329.7 282.96 329.68 283.05 329.66C283.41 329.56 283.76 329.47 284.12 329.38C284.13 329.38 284.14 329.37 284.15 329.37C284.16 329.37 284.16 329.37 284.17 329.36C284.18 329.36 284.19 329.36 284.2 329.36C284.21 329.36 284.22 329.35 284.22 329.35C284.64 329.25 285.06 329.14 285.49 329.04C285.91 328.95 286.21 328.87 286.58 328.78L286.93 328.7L288.09 328.45C289.11 328.23 290.14 328.03 291.16 327.84C292.19 327.66 293.27 327.48 294.33 327.33L295.21 327.2L295.36 327.2L295.42 327.2L296.29 327.08C296.63 327.04 296.97 326.99 297.32 326.96C297.66 326.92 298.01 326.87 298.36 326.84L299.34 326.73L299.4 326.73C300.06 326.67 300.73 326.61 301.4 326.56L302.36 326.48L303.49 326.42C303.74 326.42 303.97 326.38 304.24 326.37C304.75 326.35 305.26 326.32 305.78 326.3L306.44 326.3L306.8 326.3L306.83 326.3L307.51 326.3C308.08 326.3 308.66 326.3 309.24 326.3L309.55 326.3C312.21 326.3 314.86 326.4 317.51 326.61C320.15 326.81 322.79 327.11 325.41 327.52C328.03 327.93 330.64 328.44 333.21 329.04C335.79 329.65 338.34 330.36 340.86 331.17L341.15 331.35Z" />
	<path id="Layer" class="shp8" d="M241.69 190.11L241.69 190.11C141.06 131.57 141.06 131.57 141.06 131.57L141.06 131.57L141.06 131.57L141.06 131.57L241.69 190.11Z" />
	<path id="Layer" class="shp9" d="M335.13 340.93C333.42 343.22 331.61 345.42 329.69 347.55C320.8 357.42 309.78 365.56 297.94 372.12L297.94 372.12L296.55 372.88C295.07 373.66 293.57 374.4 292.04 375.08C290.51 375.77 288.96 376.4 287.38 376.98C285.81 377.56 284.21 378.09 282.6 378.56C280.99 379.04 279.36 379.45 277.72 379.82L277.63 379.82C275.75 380.24 273.85 380.6 271.94 380.92C270.04 381.24 268.12 381.5 266.2 381.71C264.27 381.93 262.35 382.09 260.41 382.2C258.48 382.31 256.55 382.36 254.61 382.37L253.27 382.37C250.89 382.37 248.53 382.28 246.19 382.12C243.18 381.92 240.21 381.59 237.28 381.13C236.11 380.95 234.94 380.75 233.77 380.52C232.61 380.3 231.45 380.06 230.29 379.79C229.13 379.53 227.98 379.24 226.84 378.94C225.69 378.64 224.55 378.31 223.42 377.97C222.8 377.78 222.18 377.59 221.57 377.39L221.32 377.31L220.89 377.16L219.88 376.81L219.81 376.81C217.72 376.05 215.1 375.02 213.33 374.3C213.45 374.19 213.57 374.08 213.7 373.96L213.91 373.75L214.49 373.19C215.36 372.31 216.2 371.4 216.99 370.44L216.99 370.44C217.35 369.98 217.71 369.55 218.06 369.09L218.42 368.63C219.01 367.84 219.57 367.03 220.1 366.19L220.13 366.16L220.34 365.82L220.5 365.55C220.55 365.46 220.61 365.38 220.66 365.28C220.72 365.19 220.82 365.02 220.9 364.88L220.95 364.8L220.82 364.74C220.85 364.71 220.89 364.68 220.92 364.64C220.96 364.61 220.99 364.58 221.03 364.54C221.06 364.51 221.09 364.48 221.12 364.44C221.16 364.41 221.19 364.37 221.22 364.33L221.22 364.33L221.22 364.33C222.21 364.32 223.21 364.26 224.2 364.17C225.19 364.08 226.18 363.94 227.16 363.78C228.14 363.61 229.11 363.4 230.07 363.16C231.04 362.92 231.99 362.64 232.93 362.33C233.32 362.19 233.71 362.04 234.09 361.89C234.48 361.73 234.85 361.56 235.23 361.39C235.6 361.21 235.97 361.02 236.33 360.83C236.69 360.63 237.05 360.42 237.4 360.21C237.9 359.9 238.38 359.57 238.86 359.23C239.34 358.89 239.81 358.54 240.26 358.18C240.72 357.81 241.16 357.43 241.59 357.04C242.02 356.65 242.44 356.24 242.85 355.83L244.2 354.84C247 352.82 249.91 350.95 252.92 349.22C255.93 347.5 259.04 345.93 262.22 344.53C265.4 343.12 268.66 341.88 271.98 340.81C275.3 339.74 278.67 338.84 282.09 338.11C283.11 337.89 284.13 337.69 285.16 337.5C288.04 336.99 290.95 336.58 293.91 336.31C297.08 336 300.3 335.85 303.56 335.85C306.22 335.85 308.87 335.95 311.52 336.15C314.16 336.35 316.8 336.66 319.42 337.06C322.04 337.47 324.64 337.98 327.22 338.59C329.8 339.2 332.35 339.9 334.87 340.71L335.13 340.93Z" />
	<path id="Layer" class="shp10" d="M329.9 347.61C321.13 358.02 314.11 363.98 301.9 370.19L301.87 370.19C300.62 370.82 299.31 371.47 297.94 372.11L297.94 372.11C295.59 373.22 293.06 374.35 290.31 375.53L290.31 375.53L290.27 375.53C289.26 375.97 288.24 376.38 287.21 376.78C286.18 377.18 285.14 377.55 284.09 377.91C283.05 378.27 281.99 378.6 280.93 378.92C279.87 379.23 278.81 379.53 277.73 379.8L277.65 379.8C275.08 380.46 272.48 381 269.86 381.43C267.24 381.86 264.6 382.18 261.95 382.39C259.3 382.6 256.64 382.7 253.98 382.68C251.32 382.67 248.66 382.54 246.02 382.3L246.02 382.3C242.99 382.05 240.08 381.66 237.3 381.2C236.13 381 234.97 380.78 233.81 380.55C232.65 380.32 231.49 380.07 230.34 379.8C229.18 379.54 228.03 379.25 226.89 378.95C225.75 378.65 224.61 378.33 223.47 377.99C222.22 377.62 221.02 377.24 219.9 376.87L219.83 376.87C219.44 376.74 219.06 376.61 218.68 376.48C216.61 375.77 214.79 375.09 213.24 374.47L213.33 374.39L213.33 374.39C213.45 374.28 213.57 374.16 213.7 374.04L213.91 373.84L214.49 373.27C215.36 372.39 216.2 371.48 216.99 370.52L216.99 370.52C217.35 370.06 217.71 369.64 218.06 369.17L218.42 368.71C219.01 367.92 219.57 367.11 220.1 366.28L220.13 366.24L220.34 365.9L220.5 365.63C220.55 365.55 220.61 365.46 220.66 365.37C220.72 365.27 220.82 365.1 220.9 364.97L220.95 364.88C224.52 366.24 227.97 368.33 230.92 367.37C231.01 367.34 231.11 367.31 231.2 367.27C231.29 367.24 231.38 367.2 231.47 367.16C231.56 367.11 231.65 367.07 231.74 367.02C231.82 366.98 231.91 366.93 231.99 366.87C232.49 366.56 232.98 366.22 233.46 365.88C233.94 365.53 234.41 365.17 234.87 364.8C235.33 364.43 235.77 364.04 236.21 363.64C236.64 363.24 237.06 362.83 237.47 362.41C237.92 362.08 238.36 361.75 238.81 361.42C241.62 359.4 244.53 357.53 247.54 355.81C250.55 354.08 253.65 352.51 256.83 351.11C260.02 349.7 263.27 348.46 266.59 347.39C269.91 346.32 273.29 345.42 276.7 344.69C277.73 344.47 278.75 344.27 279.78 344.09C282.03 343.68 284.31 343.35 286.61 343.09C287.57 342.98 288.53 342.88 289.5 342.8C290.46 342.72 291.42 342.66 292.39 342.6C293.35 342.55 294.32 342.51 295.28 342.48C296.25 342.45 297.22 342.44 298.18 342.44C308.51 342.44 327.54 346.96 329.7 347.53L329.9 347.61Z" />
	<path id="Layer" fill-rule="evenodd" class="shp11" d="M220.94 364.66C220.98 364.63 221.01 364.59 221.04 364.56C221.08 364.52 221.11 364.49 221.14 364.45C221.18 364.42 221.21 364.38 221.24 364.35L220.97 364.81L220.84 364.76C220.87 364.72 220.91 364.69 220.94 364.66ZM232.42 313.18C232.79 313.24 233.16 313.3 233.53 313.35C233.15 313.31 232.79 313.24 232.42 313.18Z" />
	<path id="Layer" class="shp12" d="M290.79 319.09C288.77 319.09 287.14 317.51 287.14 315.57C287.14 313.62 288.77 312.05 290.79 312.05C292.8 312.05 294.44 313.62 294.44 315.57C294.44 317.51 292.8 319.09 290.79 319.09Z" />
	<path id="Layer" class="shp12" d="M370.84 259.62C370.84 241.82 384.31 228.11 402.84 228.11C410.18 228.11 418.72 229.79 426.18 237.11C427.38 238.31 428.18 240.11 426.42 241.92L425.13 243.24C423.57 244.57 422.01 245.17 419.96 243.24C412.96 236.99 407.33 236.63 402.96 236.63C389.73 236.63 380.46 246.37 380.46 259.72C380.46 272.72 389.25 282.58 402.96 282.58C407.29 282.58 412.96 282.22 419.96 275.96C421.96 274.04 423.57 274.52 425.13 275.96L426.46 277.29C428.26 279.09 427.46 280.77 426.22 282.1C418.76 289.43 410.22 291.1 402.88 291.1C384.31 291.14 370.84 277.42 370.84 259.62Z" />
	<path id="Layer" fill-rule="evenodd" class="shp12" d="M435.81 259.62C435.81 241.82 449.4 228.11 467.81 228.11C486.22 228.11 499.81 241.82 499.81 259.62C499.81 277.42 486.22 291.14 467.81 291.14C449.4 291.14 435.81 277.42 435.81 259.62ZM490.18 259.62C490.18 246.39 480.91 236.62 467.8 236.62C454.69 236.62 445.43 246.36 445.43 259.62C445.43 272.88 454.69 282.62 467.8 282.62C480.91 282.62 490.18 272.85 490.18 259.62Z" />
	<path id="Layer" class="shp12" d="M565 232.44L565 286.24C565.05 286.69 565 287.14 564.86 287.57C564.71 288 564.48 288.39 564.17 288.72C563.87 289.05 563.49 289.31 563.08 289.48C562.66 289.65 562.21 289.74 561.76 289.72L559.35 289.72C558.9 289.73 558.46 289.65 558.04 289.47C557.63 289.3 557.26 289.04 556.95 288.71C556.65 288.38 556.42 287.99 556.28 287.56C556.13 287.14 556.08 286.69 556.13 286.24L556.13 282.39C552.04 287.8 545.67 291.17 537.01 291.17C522.69 291.17 513.19 281.17 513.19 266.27L513.19 232.44C513.19 230.27 514.39 228.95 516.44 228.95L519.56 228.95C521.61 228.95 522.69 230.27 522.69 232.44L522.69 266C522.69 276 529.07 282.72 538.69 282.72C548.92 282.72 555.53 275.86 555.53 265.27L555.53 232.44C555.53 230.27 556.61 228.95 558.66 228.95L561.79 228.95C563.8 228.95 565 230.24 565 232.44Z" />
	<path id="Layer" class="shp12" d="M616.38 233.16L615.89 235.08C615.17 237.49 613.37 237.73 611.56 237.25C611.22 237.13 610.88 237.03 610.53 236.94C610.19 236.85 609.84 236.77 609.49 236.71C609.13 236.65 608.78 236.61 608.42 236.58C608.07 236.55 607.71 236.53 607.35 236.53C598.45 236.53 593.16 244.47 593.16 255.29L593.16 286.24C593.16 288.24 592.08 289.72 589.91 289.72L586.91 289.72C586.46 289.74 586.01 289.65 585.59 289.48C585.18 289.31 584.8 289.05 584.5 288.72C584.19 288.39 583.96 288 583.81 287.57C583.67 287.14 583.62 286.69 583.67 286.24L583.67 232.44C583.67 230.27 584.87 228.95 586.91 228.95L589.32 228.95C591.37 228.95 592.57 230.27 592.57 232.44L592.57 237.49C595.82 231.72 600.99 228.11 608.21 228.11C608.73 228.1 609.24 228.11 609.76 228.13C610.27 228.16 610.79 228.2 611.3 228.26C611.81 228.32 612.32 228.4 612.83 228.49C613.34 228.59 613.84 228.7 614.34 228.83C616.01 229.31 617.22 230.24 616.38 233.16Z" />
	<path id="Layer" class="shp12" d="M620.47 281.51C619.27 279.95 618.55 278.15 620.71 276.51L621.56 275.67C623.24 274.23 624.8 273.75 626.73 275.79C627.67 276.89 628.73 277.89 629.88 278.77C631.03 279.64 632.28 280.39 633.59 281C634.9 281.62 636.28 282.08 637.69 282.4C639.11 282.72 640.55 282.88 642 282.89C649.34 282.89 654.39 279.52 654.39 274.23C654.39 267.37 647.66 264.96 640.08 261.84C631.54 258.35 623 254.62 623 244.84C623 234.73 631.06 228.12 643.33 228.12C645.03 228.09 646.74 228.23 648.41 228.55C650.08 228.87 651.72 229.36 653.29 230.03C654.86 230.69 656.36 231.51 657.75 232.49C659.15 233.46 660.44 234.58 661.61 235.82C663.05 237.26 663.78 238.94 661.85 240.99L661.01 241.83C659.69 243.15 657.88 243.99 655.84 242.07C651.39 237.74 648.14 236.3 643.09 236.3C636.71 236.3 632.62 239.42 632.62 243.99C632.62 248.81 637.43 251.09 644.05 253.99C654.39 258.44 664.05 261.93 664.05 274.08C664.05 284.42 655.39 291.16 642.51 291.16C634.79 291.14 625.88 287.89 620.47 281.51Z" />
	<path id="Layer" fill-rule="evenodd" class="shp12" d="M706.76 282.84C708.44 282.84 710.12 282.69 711.78 282.39C713.43 282.1 715.06 281.65 716.64 281.07C718.22 280.48 719.74 279.76 721.19 278.91C722.64 278.06 724.01 277.08 725.29 275.98C727.45 274.18 729.02 274.42 730.46 275.98L731.66 277.06C733.47 278.99 732.66 280.67 731.42 281.87C724.2 288.87 713.98 291.14 706.76 291.14C690.28 291.14 674.89 279.71 674.89 259.86C674.89 241.7 687.89 228.11 705.2 228.11C713.74 228.11 720.96 231.11 726.13 236.17C727.58 237.62 728.89 239.22 730.02 240.94C731.16 242.65 732.12 244.48 732.89 246.38C733.66 248.29 734.24 250.27 734.61 252.29C734.99 254.31 735.16 256.36 735.13 258.42C735.14 258.95 735.04 259.47 734.83 259.96C734.63 260.45 734.32 260.89 733.94 261.25C733.55 261.61 733.1 261.89 732.6 262.07C732.1 262.24 731.57 262.31 731.04 262.27L684.63 262.27C685.71 275.5 695.82 282.84 706.76 282.84ZM725.42 254.33C725.29 253.22 725.07 252.12 724.77 251.04C724.47 249.96 724.08 248.91 723.61 247.89C723.14 246.87 722.59 245.89 721.96 244.96C721.34 244.03 720.64 243.15 719.88 242.33C716.4 238.48 711.34 236.44 705.21 236.44C694.25 236.41 686.31 243.38 684.75 254.33L725.42 254.33Z" />
</svg>